<?xml version="1.0" encoding="UTF-8" standalone="no"?>
<!DOCTYPE svg PUBLIC "-//W3C//DTD SVG 1.1//EN"
 "http://www.w3.org/Graphics/SVG/1.1/DTD/svg11.dtd">
<!-- Generated by graphviz version 2.43.0 (0)
 -->
<!-- Title: thy_agentic_rag_system Pages: 1 -->
<svg width="1987pt" height="1079pt"
 viewBox="0.00 0.00 1987.40 1079.42" xmlns="http://www.w3.org/2000/svg" xmlns:xlink="http://www.w3.org/1999/xlink">
<g id="graph0" class="graph" transform="scale(1 1) rotate(0) translate(25.2 1054.22)">
<title>thy_agentic_rag_system</title>
<polygon fill="white" stroke="transparent" points="-25.2,25.2 -25.2,-1054.22 1962.2,-1054.22 1962.2,25.2 -25.2,25.2"/>
<text text-anchor="middle" x="353.5" y="-1007.42" font-family="Helvetica,sans-Serif" font-size="22.00">THY&#45;Branded Agentic RAG — Fully Asynchronous System Architecture</text>
<g id="clust1" class="cluster">
<title>cluster_frontend</title>
<path fill="white" stroke="#e2e8f0" d="M783,-703.25C783,-703.25 963,-703.25 963,-703.25 969,-703.25 975,-709.25 975,-715.25 975,-715.25 975,-896.25 975,-896.25 975,-902.25 969,-908.25 963,-908.25 963,-908.25 783,-908.25 783,-908.25 777,-908.25 771,-902.25 771,-896.25 771,-896.25 771,-715.25 771,-715.25 771,-709.25 777,-703.25 783,-703.25"/>
<text text-anchor="middle" x="823" y="-886.65" font-family="Helvetica,sans-Serif" font-size="22.00">Frontend</text>
</g>
<g id="clust2" class="cluster">
<title>cluster_backend</title>
<path fill="white" stroke="#e2e8f0" d="M530,-199.25C530,-199.25 1151,-199.25 1151,-199.25 1157,-199.25 1163,-205.25 1163,-211.25 1163,-211.25 1163,-647.25 1163,-647.25 1163,-653.25 1157,-659.25 1151,-659.25 1151,-659.25 530,-659.25 530,-659.25 524,-659.25 518,-653.25 518,-647.25 518,-647.25 518,-211.25 518,-211.25 518,-205.25 524,-199.25 530,-199.25"/>
<text text-anchor="middle" x="654.5" y="-637.65" font-family="Helvetica,sans-Serif" font-size="22.00">Async FastAPI application</text>
</g>
<g id="clust3" class="cluster">
<title>cluster_model</title>
<path fill="white" stroke="#e2e8f0" d="M1183,-31.62C1183,-31.62 1661,-31.62 1661,-31.62 1667,-31.62 1673,-37.62 1673,-43.62 1673,-43.62 1673,-291.25 1673,-291.25 1673,-297.25 1667,-303.25 1661,-303.25 1661,-303.25 1183,-303.25 1183,-303.25 1177,-303.25 1171,-297.25 1171,-291.25 1171,-291.25 1171,-43.62 1171,-43.62 1171,-37.62 1177,-31.62 1183,-31.62"/>
<text text-anchor="middle" x="1323.5" y="-281.65" font-family="Helvetica,sans-Serif" font-size="22.00">Model and orchestration layer</text>
</g>
<g id="clust4" class="cluster">
<title>cluster_data</title>
<path fill="white" stroke="#e2e8f0" d="M20,-8C20,-8 498,-8 498,-8 504,-8 510,-14 510,-20 510,-20 510,-273.25 510,-273.25 510,-279.25 504,-285.25 498,-285.25 498,-285.25 20,-285.25 20,-285.25 14,-285.25 8,-279.25 8,-273.25 8,-273.25 8,-20 8,-20 8,-14 14,-8 20,-8"/>
<text text-anchor="middle" x="74" y="-263.65" font-family="Helvetica,sans-Serif" font-size="22.00">Persistence</text>
</g>
<g id="clust5" class="cluster">
<title>cluster_provider</title>
<path fill="white" stroke="#e2e8f0" d="M1693,-31.62C1693,-31.62 1917,-31.62 1917,-31.62 1923,-31.62 1929,-37.62 1929,-43.62 1929,-43.62 1929,-105.62 1929,-105.62 1929,-111.62 1923,-117.62 1917,-117.62 1917,-117.62 1693,-117.62 1693,-117.62 1687,-117.62 1681,-111.62 1681,-105.62 1681,-105.62 1681,-43.62 1681,-43.62 1681,-37.62 1687,-31.62 1693,-31.62"/>
<text text-anchor="middle" x="1805" y="-96.03" font-family="Helvetica,sans-Serif" font-size="22.00">External model provider</text>
</g>
<!-- user -->
<g id="node1" class="node">
<title>user</title>
<ellipse fill="#fff5f5" stroke="#c8102e" stroke-width="1.2" cx="873" cy="-978.63" rx="61.54" ry="18.27"/>
<text text-anchor="middle" x="873" y="-975.83" font-family="Helvetica,sans-Serif" font-size="11.00" fill="#14213d">Browser user</text>
</g>
<!-- react -->
<g id="node2" class="node">
<title>react</title>
<path fill="#fff5f5" stroke="#c8102e" stroke-width="1.2" d="M955,-868.25C955,-868.25 791,-868.25 791,-868.25 785,-868.25 779,-862.25 779,-856.25 779,-856.25 779,-830.25 779,-830.25 779,-824.25 785,-818.25 791,-818.25 791,-818.25 955,-818.25 955,-818.25 961,-818.25 967,-824.25 967,-830.25 967,-830.25 967,-856.25 967,-856.25 967,-862.25 961,-868.25 955,-868.25"/>
<text text-anchor="middle" x="873" y="-852.45" font-family="Helvetica,sans-Serif" font-size="11.00" fill="#14213d">React 19 + TypeScript</text>
<text text-anchor="middle" x="873" y="-840.45" font-family="Helvetica,sans-Serif" font-size="11.00" fill="#14213d">Vite + TanStack Query + Zustand</text>
<text text-anchor="middle" x="873" y="-828.45" font-family="Helvetica,sans-Serif" font-size="11.00" fill="#14213d">Math rendering + citation previews</text>
</g>
<!-- user&#45;&gt;react -->
<g id="edge10" class="edge">
<title>user&#45;&gt;react</title>
<path fill="none" stroke="#64748b" stroke-width="1.1" d="M873,-960.2C873,-938.77 873,-902.01 873,-875.62"/>
<polygon fill="#64748b" stroke="#64748b" stroke-width="1.1" points="875.45,-875.47 873,-868.47 870.55,-875.47 875.45,-875.47"/>
<text text-anchor="middle" x="888" y="-919.05" font-family="Helvetica,sans-Serif" font-size="9.00" fill="#475569">HTTPS</text>
</g>
<!-- nginx -->
<g id="node3" class="node">
<title>nginx</title>
<path fill="#ffffff" stroke="#cbd5e1" stroke-width="1.2" d="M950.5,-749.25C950.5,-749.25 795.5,-749.25 795.5,-749.25 789.5,-749.25 783.5,-743.25 783.5,-737.25 783.5,-737.25 783.5,-723.25 783.5,-723.25 783.5,-717.25 789.5,-711.25 795.5,-711.25 795.5,-711.25 950.5,-711.25 950.5,-711.25 956.5,-711.25 962.5,-717.25 962.5,-723.25 962.5,-723.25 962.5,-737.25 962.5,-737.25 962.5,-743.25 956.5,-749.25 950.5,-749.25"/>
<text text-anchor="middle" x="873" y="-733.45" font-family="Helvetica,sans-Serif" font-size="11.00" fill="#14213d">Nginx</text>
<text text-anchor="middle" x="873" y="-721.45" font-family="Helvetica,sans-Serif" font-size="11.00" fill="#14213d">Static delivery + async API proxy</text>
</g>
<!-- react&#45;&gt;nginx -->
<g id="edge1" class="edge">
<title>react&#45;&gt;nginx</title>
<path fill="none" stroke="#64748b" stroke-width="1.1" d="M873,-818.16C873,-800.09 873,-775.38 873,-756.93"/>
<polygon fill="#64748b" stroke="#64748b" stroke-width="1.1" points="875.45,-756.44 873,-749.44 870.55,-756.44 875.45,-756.44"/>
</g>
<!-- api -->
<g id="node4" class="node">
<title>api</title>
<path fill="#f8fafc" stroke="#cbd5e1" stroke-width="1.2" d="M942,-619.25C942,-619.25 804,-619.25 804,-619.25 798,-619.25 792,-613.25 792,-607.25 792,-607.25 792,-593.25 792,-593.25 792,-587.25 798,-581.25 804,-581.25 804,-581.25 942,-581.25 942,-581.25 948,-581.25 954,-587.25 954,-593.25 954,-593.25 954,-607.25 954,-607.25 954,-613.25 948,-619.25 942,-619.25"/>
<text text-anchor="middle" x="873" y="-603.45" font-family="Helvetica,sans-Serif" font-size="11.00" fill="#14213d">Async REST API + OpenAPI</text>
<text text-anchor="middle" x="873" y="-591.45" font-family="Helvetica,sans-Serif" font-size="11.00" fill="#14213d">Pydantic v2 + request IDs</text>
</g>
<!-- nginx&#45;&gt;api -->
<g id="edge11" class="edge">
<title>nginx&#45;&gt;api</title>
<path fill="none" stroke="#64748b" stroke-width="1.1" d="M873,-711.18C873,-689.1 873,-651.61 873,-626.64"/>
<polygon fill="#64748b" stroke="#64748b" stroke-width="1.1" points="875.45,-626.64 873,-619.64 870.55,-626.64 875.45,-626.64"/>
<text text-anchor="middle" x="929" y="-670.05" font-family="Helvetica,sans-Serif" font-size="9.00" fill="#475569">async REST + X&#45;Username</text>
</g>
<!-- identity -->
<g id="node5" class="node">
<title>identity</title>
<path fill="#fff5f5" stroke="#c8102e" stroke-width="1.2" d="M951,-512.25C951,-512.25 795,-512.25 795,-512.25 789,-512.25 783,-506.25 783,-500.25 783,-500.25 783,-486.25 783,-486.25 783,-480.25 789,-474.25 795,-474.25 795,-474.25 951,-474.25 951,-474.25 957,-474.25 963,-480.25 963,-486.25 963,-486.25 963,-500.25 963,-500.25 963,-506.25 957,-512.25 951,-512.25"/>
<text text-anchor="middle" x="873" y="-496.45" font-family="Helvetica,sans-Serif" font-size="11.00" fill="#14213d">Tenant boundary</text>
<text text-anchor="middle" x="873" y="-484.45" font-family="Helvetica,sans-Serif" font-size="11.00" fill="#14213d">Username → internal user UUID</text>
</g>
<!-- api&#45;&gt;identity -->
<g id="edge2" class="edge">
<title>api&#45;&gt;identity</title>
<path fill="none" stroke="#64748b" stroke-width="1.1" d="M873,-580.96C873,-563.95 873,-538.44 873,-519.49"/>
<polygon fill="#64748b" stroke="#64748b" stroke-width="1.1" points="875.45,-519.33 873,-512.33 870.55,-519.33 875.45,-519.33"/>
</g>
<!-- document_service -->
<g id="node6" class="node">
<title>document_service</title>
<path fill="#ffffff" stroke="#cbd5e1" stroke-width="1.2" d="M736.5,-405.25C736.5,-405.25 537.5,-405.25 537.5,-405.25 531.5,-405.25 525.5,-399.25 525.5,-393.25 525.5,-393.25 525.5,-367.25 525.5,-367.25 525.5,-361.25 531.5,-355.25 537.5,-355.25 537.5,-355.25 736.5,-355.25 736.5,-355.25 742.5,-355.25 748.5,-361.25 748.5,-367.25 748.5,-367.25 748.5,-393.25 748.5,-393.25 748.5,-399.25 742.5,-405.25 736.5,-405.25"/>
<text text-anchor="middle" x="637" y="-389.45" font-family="Helvetica,sans-Serif" font-size="11.00" fill="#14213d">Documents + ingestion</text>
<text text-anchor="middle" x="637" y="-377.45" font-family="Helvetica,sans-Serif" font-size="11.00" fill="#14213d">Concurrent jobs + one&#45;active&#45;job invariant</text>
<text text-anchor="middle" x="637" y="-365.45" font-family="Helvetica,sans-Serif" font-size="11.00" fill="#14213d">Cancellation&#45;safe lifecycle</text>
</g>
<!-- identity&#45;&gt;document_service -->
<g id="edge3" class="edge">
<title>identity&#45;&gt;document_service</title>
<path fill="none" stroke="#64748b" stroke-width="1.1" d="M834.56,-474.17C796.67,-456.35 738.29,-428.89 694.8,-408.44"/>
<polygon fill="#64748b" stroke="#64748b" stroke-width="1.1" points="695.61,-406.11 688.23,-405.35 693.52,-410.54 695.61,-406.11"/>
</g>
<!-- chat_service -->
<g id="node7" class="node">
<title>chat_service</title>
<path fill="#ffffff" stroke="#cbd5e1" stroke-width="1.2" d="M950,-405.25C950,-405.25 796,-405.25 796,-405.25 790,-405.25 784,-399.25 784,-393.25 784,-393.25 784,-367.25 784,-367.25 784,-361.25 790,-355.25 796,-355.25 796,-355.25 950,-355.25 950,-355.25 956,-355.25 962,-361.25 962,-367.25 962,-367.25 962,-393.25 962,-393.25 962,-399.25 956,-405.25 950,-405.25"/>
<text text-anchor="middle" x="873" y="-389.45" font-family="Helvetica,sans-Serif" font-size="11.00" fill="#14213d">Chat sessions</text>
<text text-anchor="middle" x="873" y="-377.45" font-family="Helvetica,sans-Serif" font-size="11.00" fill="#14213d">Per&#45;session ordered async turns</text>
<text text-anchor="middle" x="873" y="-365.45" font-family="Helvetica,sans-Serif" font-size="11.00" fill="#14213d">Bounded short&#45;term history</text>
</g>
<!-- identity&#45;&gt;chat_service -->
<g id="edge4" class="edge">
<title>identity&#45;&gt;chat_service</title>
<path fill="none" stroke="#64748b" stroke-width="1.1" d="M873,-473.92C873,-457.25 873,-432.3 873,-412.48"/>
<polygon fill="#64748b" stroke="#64748b" stroke-width="1.1" points="875.45,-412.44 873,-405.44 870.55,-412.44 875.45,-412.44"/>
</g>
<!-- usage_service -->
<g id="node8" class="node">
<title>usage_service</title>
<path fill="#ffffff" stroke="#cbd5e1" stroke-width="1.2" d="M1142.5,-399.25C1142.5,-399.25 1009.5,-399.25 1009.5,-399.25 1003.5,-399.25 997.5,-393.25 997.5,-387.25 997.5,-387.25 997.5,-373.25 997.5,-373.25 997.5,-367.25 1003.5,-361.25 1009.5,-361.25 1009.5,-361.25 1142.5,-361.25 1142.5,-361.25 1148.5,-361.25 1154.5,-367.25 1154.5,-373.25 1154.5,-373.25 1154.5,-387.25 1154.5,-387.25 1154.5,-393.25 1148.5,-399.25 1142.5,-399.25"/>
<text text-anchor="middle" x="1076" y="-383.45" font-family="Helvetica,sans-Serif" font-size="11.00" fill="#14213d">Usage + pricing</text>
<text text-anchor="middle" x="1076" y="-371.45" font-family="Helvetica,sans-Serif" font-size="11.00" fill="#14213d">Tokens, known cost, version</text>
</g>
<!-- identity&#45;&gt;usage_service -->
<g id="edge5" class="edge">
<title>identity&#45;&gt;usage_service</title>
<path fill="none" stroke="#64748b" stroke-width="1.1" d="M906.07,-474.17C941.75,-454.66 998.56,-423.59 1036.55,-402.82"/>
<polygon fill="#64748b" stroke="#64748b" stroke-width="1.1" points="1037.98,-404.83 1042.95,-399.32 1035.63,-400.53 1037.98,-404.83"/>
</g>
<!-- repositories -->
<g id="node9" class="node">
<title>repositories</title>
<path fill="#ffffff" stroke="#cbd5e1" stroke-width="1.2" d="M848,-245.25C848,-245.25 666,-245.25 666,-245.25 660,-245.25 654,-239.25 654,-233.25 654,-233.25 654,-219.25 654,-219.25 654,-213.25 660,-207.25 666,-207.25 666,-207.25 848,-207.25 848,-207.25 854,-207.25 860,-213.25 860,-219.25 860,-219.25 860,-233.25 860,-233.25 860,-239.25 854,-245.25 848,-245.25"/>
<text text-anchor="middle" x="757" y="-229.45" font-family="Helvetica,sans-Serif" font-size="11.00" fill="#14213d">Owner&#45;scoped repositories</text>
<text text-anchor="middle" x="757" y="-217.45" font-family="Helvetica,sans-Serif" font-size="11.00" fill="#14213d">Async SQLAlchemy 2 + AsyncSession</text>
</g>
<!-- document_service&#45;&gt;repositories -->
<g id="edge6" class="edge">
<title>document_service&#45;&gt;repositories</title>
<path fill="none" stroke="#64748b" stroke-width="1.1" d="M656.01,-355.17C678.47,-326.72 715.61,-279.68 738.04,-251.27"/>
<polygon fill="#64748b" stroke="#64748b" stroke-width="1.1" points="740.18,-252.51 742.59,-245.5 736.33,-249.47 740.18,-252.51"/>
</g>
<!-- ingestion_pipeline -->
<g id="node10" class="node">
<title>ingestion_pipeline</title>
<path fill="#fff5f5" stroke="#c8102e" stroke-width="1.2" d="M1387,-257.25C1387,-257.25 1191,-257.25 1191,-257.25 1185,-257.25 1179,-251.25 1179,-245.25 1179,-245.25 1179,-207.25 1179,-207.25 1179,-201.25 1185,-195.25 1191,-195.25 1191,-195.25 1387,-195.25 1387,-195.25 1393,-195.25 1399,-201.25 1399,-207.25 1399,-207.25 1399,-245.25 1399,-245.25 1399,-251.25 1393,-257.25 1387,-257.25"/>
<text text-anchor="middle" x="1289" y="-241.45" font-family="Helvetica,sans-Serif" font-size="11.00" fill="#14213d">Bounded async ingestion</text>
<text text-anchor="middle" x="1289" y="-229.45" font-family="Helvetica,sans-Serif" font-size="11.00" fill="#14213d">Concurrent documents + semantic pages</text>
<text text-anchor="middle" x="1289" y="-217.45" font-family="Helvetica,sans-Serif" font-size="11.00" fill="#14213d">Semantic or Docling chunking</text>
<text text-anchor="middle" x="1289" y="-205.45" font-family="Helvetica,sans-Serif" font-size="11.00" fill="#14213d">Batched embeddings + Qdrant upserts</text>
</g>
<!-- document_service&#45;&gt;ingestion_pipeline -->
<g id="edge12" class="edge">
<title>document_service&#45;&gt;ingestion_pipeline</title>
<path fill="none" stroke="#64748b" stroke-width="1.1" d="M693.27,-355.21C733.15,-339.46 788.35,-320.18 839,-311.25 875.34,-304.85 1135.73,-314.09 1171,-303.25 1198.9,-294.68 1226.53,-277.48 1248.03,-261.62"/>
<polygon fill="#64748b" stroke="#64748b" stroke-width="1.1" points="1249.52,-263.56 1253.64,-257.4 1246.58,-259.65 1249.52,-263.56"/>
<text text-anchor="middle" x="890.5" y="-314.05" font-family="Helvetica,sans-Serif" font-size="9.00" fill="#475569">bounded concurrent jobs</text>
</g>
<!-- uploads -->
<g id="node14" class="node">
<title>uploads</title>
<polygon fill="#f8fafc" stroke="#cbd5e1" stroke-width="1.2" points="501.5,-245.25 498.5,-249.25 477.5,-249.25 474.5,-245.25 354.5,-245.25 354.5,-207.25 501.5,-207.25 501.5,-245.25"/>
<text text-anchor="middle" x="428" y="-229.45" font-family="Helvetica,sans-Serif" font-size="11.00" fill="#14213d">Persistent volume</text>
<text text-anchor="middle" x="428" y="-217.45" font-family="Helvetica,sans-Serif" font-size="11.00" fill="#14213d">Sources + render artifacts</text>
</g>
<!-- document_service&#45;&gt;uploads -->
<g id="edge15" class="edge">
<title>document_service&#45;&gt;uploads</title>
<path fill="none" stroke="#64748b" stroke-width="1.1" d="M591.75,-355.22C566.83,-341.24 535.8,-322.59 510,-303.25 488.51,-287.14 466.3,-266.24 450.42,-250.44"/>
<polygon fill="#64748b" stroke="#64748b" stroke-width="1.1" points="451.97,-248.52 445.29,-245.29 448.5,-251.98 451.97,-248.52"/>
<text text-anchor="middle" x="557.5" y="-314.05" font-family="Helvetica,sans-Serif" font-size="9.00" fill="#475569">source files</text>
</g>
<!-- chat_service&#45;&gt;repositories -->
<g id="edge7" class="edge">
<title>chat_service&#45;&gt;repositories</title>
<path fill="none" stroke="#64748b" stroke-width="1.1" d="M816.75,-354.96C802.22,-346.25 787.9,-335.08 778,-321.25 763.61,-301.15 758.84,-272.91 757.37,-252.64"/>
<polygon fill="#64748b" stroke="#64748b" stroke-width="1.1" points="759.81,-252.42 756.97,-245.57 754.92,-252.69 759.81,-252.42"/>
</g>
<!-- rag_graph -->
<g id="node11" class="node">
<title>rag_graph</title>
<path fill="#fff5f5" stroke="#c8102e" stroke-width="1.2" d="M1653.5,-263.25C1653.5,-263.25 1446.5,-263.25 1446.5,-263.25 1440.5,-263.25 1434.5,-257.25 1434.5,-251.25 1434.5,-251.25 1434.5,-201.25 1434.5,-201.25 1434.5,-195.25 1440.5,-189.25 1446.5,-189.25 1446.5,-189.25 1653.5,-189.25 1653.5,-189.25 1659.5,-189.25 1665.5,-195.25 1665.5,-201.25 1665.5,-201.25 1665.5,-251.25 1665.5,-251.25 1665.5,-257.25 1659.5,-263.25 1653.5,-263.25"/>
<text text-anchor="middle" x="1550" y="-247.45" font-family="Helvetica,sans-Serif" font-size="11.00" fill="#14213d">Async LangGraph Agentic RAG</text>
<text text-anchor="middle" x="1550" y="-235.45" font-family="Helvetica,sans-Serif" font-size="11.00" fill="#14213d">One verbatim + optional standalone query</text>
<text text-anchor="middle" x="1550" y="-223.45" font-family="Helvetica,sans-Serif" font-size="11.00" fill="#14213d">Send map → retrieval → reducer → rerank</text>
<text text-anchor="middle" x="1550" y="-211.45" font-family="Helvetica,sans-Serif" font-size="11.00" fill="#14213d">Answer → validate → reflect → repair once</text>
<text text-anchor="middle" x="1550" y="-199.45" font-family="Helvetica,sans-Serif" font-size="11.00" fill="#14213d">Grounded / hybrid / labeled general</text>
</g>
<!-- chat_service&#45;&gt;rag_graph -->
<g id="edge13" class="edge">
<title>chat_service&#45;&gt;rag_graph</title>
<path fill="none" stroke="#64748b" stroke-width="1.1" d="M962.19,-358.53C968.21,-357.35 974.18,-356.25 980,-355.25 1172.79,-322.25 1231.26,-364.55 1417,-303.25 1442.97,-294.68 1469.54,-280.73 1492.03,-267.11"/>
<polygon fill="#64748b" stroke="#64748b" stroke-width="1.1" points="1493.58,-269.03 1498.26,-263.28 1491.01,-264.86 1493.58,-269.03"/>
<text text-anchor="middle" x="1449" y="-314.05" font-family="Helvetica,sans-Serif" font-size="9.00" fill="#475569">await question + session history</text>
</g>
<!-- usage_service&#45;&gt;repositories -->
<g id="edge8" class="edge">
<title>usage_service&#45;&gt;repositories</title>
<path fill="none" stroke="#64748b" stroke-width="1.1" d="M1006.13,-361.23C997.35,-359.13 988.48,-357.08 980,-355.25 897.86,-337.49 858.9,-374.63 794,-321.25 773.31,-304.23 764.14,-274.06 760.11,-252.49"/>
<polygon fill="#64748b" stroke="#64748b" stroke-width="1.1" points="762.51,-252.03 758.93,-245.54 757.68,-252.85 762.51,-252.03"/>
</g>
<!-- openai -->
<g id="node16" class="node">
<title>openai</title>
<path fill="#f8fafc" stroke="#cbd5e1" stroke-width="1.2" d="M1847,-77.62C1847,-77.62 1701,-77.62 1701,-77.62 1695,-77.62 1689,-71.62 1689,-65.62 1689,-65.62 1689,-51.62 1689,-51.62 1689,-45.62 1695,-39.62 1701,-39.62 1701,-39.62 1847,-39.62 1847,-39.62 1853,-39.62 1859,-45.62 1859,-51.62 1859,-51.62 1859,-65.62 1859,-65.62 1859,-71.62 1853,-77.62 1847,-77.62"/>
<text text-anchor="middle" x="1774" y="-61.83" font-family="Helvetica,sans-Serif" font-size="11.00" fill="#14213d">OpenAI APIs via AsyncOpenAI</text>
<text text-anchor="middle" x="1774" y="-49.83" font-family="Helvetica,sans-Serif" font-size="11.00" fill="#14213d">Responses + embeddings</text>
</g>
<!-- usage_service&#45;&gt;openai -->
<g id="edge20" class="edge">
<title>usage_service&#45;&gt;openai</title>
<path fill="none" stroke="#64748b" stroke-width="1.1" stroke-dasharray="5,2" d="M1154.51,-378.52C1298.68,-375.73 1598.43,-362.72 1681,-303.25 1753.13,-251.3 1769.32,-135.73 1772.95,-84.68"/>
<polygon fill="#64748b" stroke="#64748b" stroke-width="1.1" points="1775.4,-84.78 1773.4,-77.64 1770.51,-84.47 1775.4,-84.78"/>
</g>
<!-- postgres -->
<g id="node13" class="node">
<title>postgres</title>
<path fill="#f8fafc" stroke="#cbd5e1" stroke-width="1.2" d="M246.5,-86.65C246.5,-90.08 194.73,-92.88 131,-92.88 67.27,-92.88 15.5,-90.08 15.5,-86.65 15.5,-86.65 15.5,-30.6 15.5,-30.6 15.5,-27.17 67.27,-24.37 131,-24.37 194.73,-24.37 246.5,-27.17 246.5,-30.6 246.5,-30.6 246.5,-86.65 246.5,-86.65"/>
<path fill="none" stroke="#cbd5e1" stroke-width="1.2" d="M246.5,-86.65C246.5,-83.21 194.73,-80.42 131,-80.42 67.27,-80.42 15.5,-83.21 15.5,-86.65"/>
<text text-anchor="middle" x="131" y="-67.83" font-family="Helvetica,sans-Serif" font-size="11.00" fill="#14213d">PostgreSQL 16</text>
<text text-anchor="middle" x="131" y="-55.83" font-family="Helvetica,sans-Serif" font-size="11.00" fill="#14213d">Async driver, row locks, partial unique index</text>
<text text-anchor="middle" x="131" y="-43.83" font-family="Helvetica,sans-Serif" font-size="11.00" fill="#14213d">Users, documents, jobs, chats, usage</text>
</g>
<!-- repositories&#45;&gt;postgres -->
<g id="edge14" class="edge">
<title>repositories&#45;&gt;postgres</title>
<path fill="none" stroke="#64748b" stroke-width="1.1" d="M653.95,-208.83C553.11,-191.36 395.9,-160.32 264,-117.62 245,-111.48 225.02,-103.57 206.48,-95.59"/>
<polygon fill="#64748b" stroke="#64748b" stroke-width="1.1" points="207.12,-93.2 199.72,-92.65 205.16,-97.69 207.12,-93.2"/>
<text text-anchor="middle" x="421" y="-143.05" font-family="Helvetica,sans-Serif" font-size="9.00" fill="#475569">await transactions</text>
</g>
<!-- qdrant -->
<g id="node15" class="node">
<title>qdrant</title>
<path fill="#f8fafc" stroke="#cbd5e1" stroke-width="1.2" d="M502,-93.6C502,-97.89 452.7,-101.38 392,-101.38 331.3,-101.38 282,-97.89 282,-93.6 282,-93.6 282,-23.65 282,-23.65 282,-19.36 331.3,-15.87 392,-15.87 452.7,-15.87 502,-19.36 502,-23.65 502,-23.65 502,-93.6 502,-93.6"/>
<path fill="none" stroke="#cbd5e1" stroke-width="1.2" d="M502,-93.6C502,-89.31 452.7,-85.83 392,-85.83 331.3,-85.83 282,-89.31 282,-93.6"/>
<text text-anchor="middle" x="392" y="-73.83" font-family="Helvetica,sans-Serif" font-size="11.00" fill="#14213d">External Qdrant</text>
<text text-anchor="middle" x="392" y="-61.83" font-family="Helvetica,sans-Serif" font-size="11.00" fill="#14213d">AsyncQdrantClient</text>
<text text-anchor="middle" x="392" y="-49.83" font-family="Helvetica,sans-Serif" font-size="11.00" fill="#14213d">Owner&#45;scoped dense + sparse search</text>
<text text-anchor="middle" x="392" y="-37.83" font-family="Helvetica,sans-Serif" font-size="11.00" fill="#14213d">semantic_chunks + docling_fixed_chunks</text>
</g>
<!-- ingestion_pipeline&#45;&gt;qdrant -->
<g id="edge16" class="edge">
<title>ingestion_pipeline&#45;&gt;qdrant</title>
<path fill="none" stroke="#64748b" stroke-width="1.1" d="M1194.3,-195.18C1186.45,-193.04 1178.61,-191.04 1171,-189.25 938.93,-134.79 662.76,-94.51 509.44,-74.27"/>
<polygon fill="#64748b" stroke="#64748b" stroke-width="1.1" points="509.5,-71.81 502.24,-73.33 508.86,-76.67 509.5,-71.81"/>
<text text-anchor="middle" x="1076.5" y="-143.05" font-family="Helvetica,sans-Serif" font-size="9.00" fill="#475569">await batched owner&#45;scoped upserts</text>
</g>
<!-- ingestion_pipeline&#45;&gt;openai -->
<g id="edge17" class="edge">
<title>ingestion_pipeline&#45;&gt;openai</title>
<path fill="none" stroke="#64748b" stroke-width="1.1" d="M1395.49,-195.22C1402.77,-193.19 1409.99,-191.19 1417,-189.25 1505.33,-164.84 1527.55,-159.24 1616,-135.25 1644.89,-127.41 1653.56,-129.59 1681,-117.62 1702.9,-108.07 1725.7,-93.94 1743.24,-82.01"/>
<polygon fill="#64748b" stroke="#64748b" stroke-width="1.1" points="1745.07,-83.72 1749.45,-77.73 1742.29,-79.68 1745.07,-83.72"/>
<text text-anchor="middle" x="1682" y="-143.05" font-family="Helvetica,sans-Serif" font-size="9.00" fill="#475569">await Responses + embeddings</text>
</g>
<!-- fallback -->
<g id="node12" class="node">
<title>fallback</title>
<path fill="#ffffff" stroke="#cbd5e1" stroke-width="1.2" d="M1508.5,-77.62C1508.5,-77.62 1383.5,-77.62 1383.5,-77.62 1377.5,-77.62 1371.5,-71.62 1371.5,-65.62 1371.5,-65.62 1371.5,-51.62 1371.5,-51.62 1371.5,-45.62 1377.5,-39.62 1383.5,-39.62 1383.5,-39.62 1508.5,-39.62 1508.5,-39.62 1514.5,-39.62 1520.5,-45.62 1520.5,-51.62 1520.5,-51.62 1520.5,-65.62 1520.5,-65.62 1520.5,-71.62 1514.5,-77.62 1508.5,-77.62"/>
<text text-anchor="middle" x="1446" y="-61.83" font-family="Helvetica,sans-Serif" font-size="11.00" fill="#14213d">Conversational fallback</text>
<text text-anchor="middle" x="1446" y="-49.83" font-family="Helvetica,sans-Serif" font-size="11.00" fill="#14213d">Active&#45;session history only</text>
</g>
<!-- rag_graph&#45;&gt;fallback -->
<g id="edge9" class="edge">
<title>rag_graph&#45;&gt;fallback</title>
<path fill="none" stroke="#64748b" stroke-width="1.1" stroke-dasharray="5,2" d="M1527.18,-188.9C1507.16,-157.03 1478.63,-111.59 1461.26,-83.93"/>
<polygon fill="#64748b" stroke="#64748b" stroke-width="1.1" points="1463.32,-82.6 1457.52,-77.98 1459.17,-85.21 1463.32,-82.6"/>
</g>
<!-- rag_graph&#45;&gt;qdrant -->
<g id="edge18" class="edge">
<title>rag_graph&#45;&gt;qdrant</title>
<path fill="none" stroke="#64748b" stroke-width="1.1" d="M1434.45,-193.33C1428.56,-191.91 1422.72,-190.54 1417,-189.25 1092.69,-116.21 700.73,-80.99 509.05,-67.11"/>
<polygon fill="#64748b" stroke="#64748b" stroke-width="1.1" points="509.2,-64.66 502.04,-66.6 508.84,-69.55 509.2,-64.66"/>
<text text-anchor="middle" x="1268.5" y="-148.05" font-family="Helvetica,sans-Serif" font-size="9.00" fill="#475569">1 or 2 query variants</text>
<text text-anchor="middle" x="1268.5" y="-138.05" font-family="Helvetica,sans-Serif" font-size="9.00" fill="#475569">mandatory owner filter</text>
</g>
<!-- rag_graph&#45;&gt;openai -->
<g id="edge19" class="edge">
<title>rag_graph&#45;&gt;openai</title>
<path fill="none" stroke="#64748b" stroke-width="1.1" d="M1598.88,-189.11C1642.99,-156.49 1706.5,-109.53 1743.68,-82.04"/>
<polygon fill="#64748b" stroke="#64748b" stroke-width="1.1" points="1745.24,-83.93 1749.42,-77.8 1742.33,-79.99 1745.24,-83.93"/>
<text text-anchor="middle" x="1714" y="-143.05" font-family="Helvetica,sans-Serif" font-size="9.00" fill="#475569">await rewrite + answer</text>
</g>
</g>
</svg>
