<?xml version="1.0" encoding="UTF-8" standalone="no"?>
<!DOCTYPE svg PUBLIC "-//W3C//DTD SVG 1.1//EN"
 "http://www.w3.org/Graphics/SVG/1.1/DTD/svg11.dtd">
<!-- Generated by graphviz version 2.43.0 (0)
 -->
<!-- Title: thy_agentic_rag_system Pages: 1 -->
<svg width="1662pt" height="1042pt"
 viewBox="0.00 0.00 1662.40 1041.92" xmlns="http://www.w3.org/2000/svg" xmlns:xlink="http://www.w3.org/1999/xlink">
<g id="graph0" class="graph" transform="scale(1 1) rotate(0) translate(25.2 1016.72)">
<title>thy_agentic_rag_system</title>
<polygon fill="white" stroke="transparent" points="-25.2,25.2 -25.2,-1016.72 1637.2,-1016.72 1637.2,25.2 -25.2,25.2"/>
<text text-anchor="middle" x="304" y="-969.92" font-family="Helvetica,sans-Serif" font-size="22.00">THY&#45;Branded Agentic RAG — Complete System Architecture</text>
<g id="clust1" class="cluster">
<title>cluster_frontend</title>
<path fill="white" stroke="#e2e8f0" d="M496,-640.75C496,-640.75 690,-640.75 690,-640.75 696,-640.75 702,-646.75 702,-652.75 702,-652.75 702,-858.75 702,-858.75 702,-864.75 696,-870.75 690,-870.75 690,-870.75 496,-870.75 496,-870.75 490,-870.75 484,-864.75 484,-858.75 484,-858.75 484,-652.75 484,-652.75 484,-646.75 490,-640.75 496,-640.75"/>
<text text-anchor="middle" x="536" y="-849.15" font-family="Helvetica,sans-Serif" font-size="22.00">Frontend</text>
</g>
<g id="clust2" class="cluster">
<title>cluster_backend</title>
<path fill="white" stroke="#e2e8f0" d="M407,-160.75C407,-160.75 913,-160.75 913,-160.75 919,-160.75 925,-166.75 925,-172.75 925,-172.75 925,-584.75 925,-584.75 925,-590.75 919,-596.75 913,-596.75 913,-596.75 407,-596.75 407,-596.75 401,-596.75 395,-590.75 395,-584.75 395,-584.75 395,-172.75 395,-172.75 395,-166.75 401,-160.75 407,-160.75"/>
<text text-anchor="middle" x="498" y="-575.15" font-family="Helvetica,sans-Serif" font-size="22.00">FastAPI application</text>
</g>
<g id="clust3" class="cluster">
<title>cluster_model</title>
<path fill="white" stroke="#e2e8f0" d="M945,-23.38C945,-23.38 1336,-23.38 1336,-23.38 1342,-23.38 1348,-29.38 1348,-35.38 1348,-35.38 1348,-240.75 1348,-240.75 1348,-246.75 1342,-252.75 1336,-252.75 1336,-252.75 945,-252.75 945,-252.75 939,-252.75 933,-246.75 933,-240.75 933,-240.75 933,-35.38 933,-35.38 933,-29.38 939,-23.38 945,-23.38"/>
<text text-anchor="middle" x="1085.5" y="-231.15" font-family="Helvetica,sans-Serif" font-size="22.00">Model and orchestration layer</text>
</g>
<g id="clust4" class="cluster">
<title>cluster_data</title>
<path fill="white" stroke="#e2e8f0" d="M20,-8C20,-8 375,-8 375,-8 381,-8 387,-14 387,-20 387,-20 387,-234.75 387,-234.75 387,-240.75 381,-246.75 375,-246.75 375,-246.75 20,-246.75 20,-246.75 14,-246.75 8,-240.75 8,-234.75 8,-234.75 8,-20 8,-20 8,-14 14,-8 20,-8"/>
<text text-anchor="middle" x="74" y="-225.15" font-family="Helvetica,sans-Serif" font-size="22.00">Persistence</text>
</g>
<g id="clust5" class="cluster">
<title>cluster_provider</title>
<path fill="white" stroke="#e2e8f0" d="M1368,-23.38C1368,-23.38 1592,-23.38 1592,-23.38 1598,-23.38 1604,-29.38 1604,-35.38 1604,-35.38 1604,-97.38 1604,-97.38 1604,-103.38 1598,-109.38 1592,-109.38 1592,-109.38 1368,-109.38 1368,-109.38 1362,-109.38 1356,-103.38 1356,-97.38 1356,-97.38 1356,-35.38 1356,-35.38 1356,-29.38 1362,-23.38 1368,-23.38"/>
<text text-anchor="middle" x="1480" y="-87.78" font-family="Helvetica,sans-Serif" font-size="22.00">External model provider</text>
</g>
<!-- user -->
<g id="node1" class="node">
<title>user</title>
<ellipse fill="#fff5f5" stroke="#c8102e" stroke-width="1.2" cx="670" cy="-941.13" rx="61.54" ry="18.27"/>
<text text-anchor="middle" x="670" y="-938.33" font-family="Helvetica,sans-Serif" font-size="11.00" fill="#14213d">Browser user</text>
</g>
<!-- react -->
<g id="node2" class="node">
<title>react</title>
<path fill="#fff5f5" stroke="#c8102e" stroke-width="1.2" d="M682,-830.75C682,-830.75 504,-830.75 504,-830.75 498,-830.75 492,-824.75 492,-818.75 492,-818.75 492,-804.75 492,-804.75 492,-798.75 498,-792.75 504,-792.75 504,-792.75 682,-792.75 682,-792.75 688,-792.75 694,-798.75 694,-804.75 694,-804.75 694,-818.75 694,-818.75 694,-824.75 688,-830.75 682,-830.75"/>
<text text-anchor="middle" x="593" y="-814.95" font-family="Helvetica,sans-Serif" font-size="11.00" fill="#14213d">React 19 + TypeScript</text>
<text text-anchor="middle" x="593" y="-802.95" font-family="Helvetica,sans-Serif" font-size="11.00" fill="#14213d">Tailwind + TanStack Query + Zustand</text>
</g>
<!-- user&#45;&gt;react -->
<g id="edge10" class="edge">
<title>user&#45;&gt;react</title>
<path fill="none" stroke="#64748b" stroke-width="1.1" d="M659.62,-922.96C646.22,-900.79 622.84,-862.11 607.64,-836.97"/>
<polygon fill="#64748b" stroke="#64748b" stroke-width="1.1" points="609.68,-835.61 603.96,-830.89 605.49,-838.15 609.68,-835.61"/>
<text text-anchor="middle" x="653" y="-881.55" font-family="Helvetica,sans-Serif" font-size="9.00" fill="#475569">HTTPS</text>
</g>
<!-- streamlit -->
<g id="node4" class="node">
<title>streamlit</title>
<path fill="#f8fafc" stroke="#cbd5e1" stroke-width="1.2" stroke-dasharray="5,2" d="M682,-758.75C682,-758.75 578,-758.75 578,-758.75 572,-758.75 566,-752.75 566,-746.75 566,-746.75 566,-732.75 566,-732.75 566,-726.75 572,-720.75 578,-720.75 578,-720.75 682,-720.75 682,-720.75 688,-720.75 694,-726.75 694,-732.75 694,-732.75 694,-746.75 694,-746.75 694,-752.75 688,-758.75 682,-758.75"/>
<text text-anchor="middle" x="630" y="-742.95" font-family="Helvetica,sans-Serif" font-size="11.00" fill="#14213d">Optional Streamlit</text>
<text text-anchor="middle" x="630" y="-730.95" font-family="Helvetica,sans-Serif" font-size="11.00" fill="#14213d">Compatibility interface</text>
</g>
<!-- user&#45;&gt;streamlit -->
<g id="edge11" class="edge">
<title>user&#45;&gt;streamlit</title>
<path fill="none" stroke="#64748b" stroke-width="1.1" d="M683.95,-923.13C693.94,-909.79 706.55,-890.28 712,-870.75 721.32,-837.36 728.71,-823.13 712,-792.75 705.15,-780.3 693.92,-770.41 681.94,-762.74"/>
<polygon fill="#64748b" stroke="#64748b" stroke-width="1.1" points="682.88,-760.45 675.62,-758.93 680.35,-764.65 682.88,-760.45"/>
<text text-anchor="middle" x="726" y="-881.55" font-family="Helvetica,sans-Serif" font-size="9.00" fill="#475569">optional</text>
</g>
<!-- nginx -->
<g id="node3" class="node">
<title>nginx</title>
<path fill="#ffffff" stroke="#cbd5e1" stroke-width="1.2" d="M628.5,-686.75C628.5,-686.75 503.5,-686.75 503.5,-686.75 497.5,-686.75 491.5,-680.75 491.5,-674.75 491.5,-674.75 491.5,-660.75 491.5,-660.75 491.5,-654.75 497.5,-648.75 503.5,-648.75 503.5,-648.75 628.5,-648.75 628.5,-648.75 634.5,-648.75 640.5,-654.75 640.5,-660.75 640.5,-660.75 640.5,-674.75 640.5,-674.75 640.5,-680.75 634.5,-686.75 628.5,-686.75"/>
<text text-anchor="middle" x="566" y="-670.95" font-family="Helvetica,sans-Serif" font-size="11.00" fill="#14213d">Nginx</text>
<text text-anchor="middle" x="566" y="-658.95" font-family="Helvetica,sans-Serif" font-size="11.00" fill="#14213d">Static delivery + API proxy</text>
</g>
<!-- react&#45;&gt;nginx -->
<g id="edge1" class="edge">
<title>react&#45;&gt;nginx</title>
<path fill="none" stroke="#64748b" stroke-width="1.1" d="M580.24,-792.42C574.35,-782.85 568.01,-770.68 565,-758.75 559.65,-737.54 560.45,-712.61 562.28,-694.37"/>
<polygon fill="#64748b" stroke="#64748b" stroke-width="1.1" points="564.76,-694.23 563.11,-687 559.89,-693.68 564.76,-694.23"/>
</g>
<!-- api -->
<g id="node5" class="node">
<title>api</title>
<path fill="#f8fafc" stroke="#cbd5e1" stroke-width="1.2" d="M709,-556.75C709,-556.75 587,-556.75 587,-556.75 581,-556.75 575,-550.75 575,-544.75 575,-544.75 575,-530.75 575,-530.75 575,-524.75 581,-518.75 587,-518.75 587,-518.75 709,-518.75 709,-518.75 715,-518.75 721,-524.75 721,-530.75 721,-530.75 721,-544.75 721,-544.75 721,-550.75 715,-556.75 709,-556.75"/>
<text text-anchor="middle" x="648" y="-540.95" font-family="Helvetica,sans-Serif" font-size="11.00" fill="#14213d">REST API + OpenAPI</text>
<text text-anchor="middle" x="648" y="-528.95" font-family="Helvetica,sans-Serif" font-size="11.00" fill="#14213d">Pydantic v2 + request IDs</text>
</g>
<!-- nginx&#45;&gt;api -->
<g id="edge12" class="edge">
<title>nginx&#45;&gt;api</title>
<path fill="none" stroke="#64748b" stroke-width="1.1" d="M574.7,-648.71C580.99,-636.12 589.94,-619.08 599,-604.75 608.11,-590.34 619.39,-575.01 628.83,-562.75"/>
<polygon fill="#64748b" stroke="#64748b" stroke-width="1.1" points="630.94,-564.03 633.29,-557 627.07,-561.03 630.94,-564.03"/>
<text text-anchor="middle" x="642" y="-607.55" font-family="Helvetica,sans-Serif" font-size="9.00" fill="#475569">REST + X&#45;Username</text>
</g>
<!-- streamlit&#45;&gt;api -->
<g id="edge13" class="edge">
<title>streamlit&#45;&gt;api</title>
<path fill="none" stroke="#64748b" stroke-width="1.1" d="M642.21,-720.43C656.93,-697.08 680.72,-654.91 689,-614.75 692.9,-595.82 682.48,-576.69 671.17,-562.36"/>
<polygon fill="#64748b" stroke="#64748b" stroke-width="1.1" points="673.01,-560.73 666.65,-556.91 669.24,-563.86 673.01,-560.73"/>
<text text-anchor="middle" x="723" y="-665.55" font-family="Helvetica,sans-Serif" font-size="9.00" fill="#475569">REST + X&#45;Username</text>
</g>
<!-- identity -->
<g id="node6" class="node">
<title>identity</title>
<path fill="#fff5f5" stroke="#c8102e" stroke-width="1.2" d="M726,-449.75C726,-449.75 570,-449.75 570,-449.75 564,-449.75 558,-443.75 558,-437.75 558,-437.75 558,-423.75 558,-423.75 558,-417.75 564,-411.75 570,-411.75 570,-411.75 726,-411.75 726,-411.75 732,-411.75 738,-417.75 738,-423.75 738,-423.75 738,-437.75 738,-437.75 738,-443.75 732,-449.75 726,-449.75"/>
<text text-anchor="middle" x="648" y="-433.95" font-family="Helvetica,sans-Serif" font-size="11.00" fill="#14213d">Tenant boundary</text>
<text text-anchor="middle" x="648" y="-421.95" font-family="Helvetica,sans-Serif" font-size="11.00" fill="#14213d">Username → internal user UUID</text>
</g>
<!-- api&#45;&gt;identity -->
<g id="edge2" class="edge">
<title>api&#45;&gt;identity</title>
<path fill="none" stroke="#64748b" stroke-width="1.1" d="M648,-518.46C648,-501.45 648,-475.94 648,-456.99"/>
<polygon fill="#64748b" stroke="#64748b" stroke-width="1.1" points="650.45,-456.83 648,-449.83 645.55,-456.83 650.45,-456.83"/>
</g>
<!-- document_service -->
<g id="node7" class="node">
<title>document_service</title>
<path fill="#ffffff" stroke="#cbd5e1" stroke-width="1.2" d="M524.5,-342.75C524.5,-342.75 415.5,-342.75 415.5,-342.75 409.5,-342.75 403.5,-336.75 403.5,-330.75 403.5,-330.75 403.5,-316.75 403.5,-316.75 403.5,-310.75 409.5,-304.75 415.5,-304.75 415.5,-304.75 524.5,-304.75 524.5,-304.75 530.5,-304.75 536.5,-310.75 536.5,-316.75 536.5,-316.75 536.5,-330.75 536.5,-330.75 536.5,-336.75 530.5,-342.75 524.5,-342.75"/>
<text text-anchor="middle" x="470" y="-326.95" font-family="Helvetica,sans-Serif" font-size="11.00" fill="#14213d">Documents + ingestion</text>
<text text-anchor="middle" x="470" y="-314.95" font-family="Helvetica,sans-Serif" font-size="11.00" fill="#14213d">Validation and lifecycle</text>
</g>
<!-- identity&#45;&gt;document_service -->
<g id="edge3" class="edge">
<title>identity&#45;&gt;document_service</title>
<path fill="none" stroke="#64748b" stroke-width="1.1" d="M617.4,-411.7C586.84,-393.67 539.82,-365.93 507.13,-346.65"/>
<polygon fill="#64748b" stroke="#64748b" stroke-width="1.1" points="508.07,-344.36 500.8,-342.92 505.58,-348.58 508.07,-344.36"/>
</g>
<!-- chat_service -->
<g id="node8" class="node">
<title>chat_service</title>
<path fill="#ffffff" stroke="#cbd5e1" stroke-width="1.2" d="M712.5,-342.75C712.5,-342.75 583.5,-342.75 583.5,-342.75 577.5,-342.75 571.5,-336.75 571.5,-330.75 571.5,-330.75 571.5,-316.75 571.5,-316.75 571.5,-310.75 577.5,-304.75 583.5,-304.75 583.5,-304.75 712.5,-304.75 712.5,-304.75 718.5,-304.75 724.5,-310.75 724.5,-316.75 724.5,-316.75 724.5,-330.75 724.5,-330.75 724.5,-336.75 718.5,-342.75 712.5,-342.75"/>
<text text-anchor="middle" x="648" y="-326.95" font-family="Helvetica,sans-Serif" font-size="11.00" fill="#14213d">Chat sessions</text>
<text text-anchor="middle" x="648" y="-314.95" font-family="Helvetica,sans-Serif" font-size="11.00" fill="#14213d">Bounded short&#45;term history</text>
</g>
<!-- identity&#45;&gt;chat_service -->
<g id="edge4" class="edge">
<title>identity&#45;&gt;chat_service</title>
<path fill="none" stroke="#64748b" stroke-width="1.1" d="M648,-411.46C648,-394.45 648,-368.94 648,-349.99"/>
<polygon fill="#64748b" stroke="#64748b" stroke-width="1.1" points="650.45,-349.83 648,-342.83 645.55,-349.83 650.45,-349.83"/>
</g>
<!-- usage_service -->
<g id="node9" class="node">
<title>usage_service</title>
<path fill="#ffffff" stroke="#cbd5e1" stroke-width="1.2" d="M904.5,-342.75C904.5,-342.75 771.5,-342.75 771.5,-342.75 765.5,-342.75 759.5,-336.75 759.5,-330.75 759.5,-330.75 759.5,-316.75 759.5,-316.75 759.5,-310.75 765.5,-304.75 771.5,-304.75 771.5,-304.75 904.5,-304.75 904.5,-304.75 910.5,-304.75 916.5,-310.75 916.5,-316.75 916.5,-316.75 916.5,-330.75 916.5,-330.75 916.5,-336.75 910.5,-342.75 904.5,-342.75"/>
<text text-anchor="middle" x="838" y="-326.95" font-family="Helvetica,sans-Serif" font-size="11.00" fill="#14213d">Usage + pricing</text>
<text text-anchor="middle" x="838" y="-314.95" font-family="Helvetica,sans-Serif" font-size="11.00" fill="#14213d">Tokens, known cost, version</text>
</g>
<!-- identity&#45;&gt;usage_service -->
<g id="edge5" class="edge">
<title>identity&#45;&gt;usage_service</title>
<path fill="none" stroke="#64748b" stroke-width="1.1" d="M680.66,-411.7C713.42,-393.59 763.9,-365.7 798.8,-346.41"/>
<polygon fill="#64748b" stroke="#64748b" stroke-width="1.1" points="800.19,-348.45 805.13,-342.92 797.82,-344.16 800.19,-348.45"/>
</g>
<!-- repositories -->
<g id="node10" class="node">
<title>repositories</title>
<path fill="#ffffff" stroke="#cbd5e1" stroke-width="1.2" d="M562,-206.75C562,-206.75 434,-206.75 434,-206.75 428,-206.75 422,-200.75 422,-194.75 422,-194.75 422,-180.75 422,-180.75 422,-174.75 428,-168.75 434,-168.75 434,-168.75 562,-168.75 562,-168.75 568,-168.75 574,-174.75 574,-180.75 574,-180.75 574,-194.75 574,-194.75 574,-200.75 568,-206.75 562,-206.75"/>
<text text-anchor="middle" x="498" y="-190.95" font-family="Helvetica,sans-Serif" font-size="11.00" fill="#14213d">Owner&#45;scoped repositories</text>
<text text-anchor="middle" x="498" y="-178.95" font-family="Helvetica,sans-Serif" font-size="11.00" fill="#14213d">SQLAlchemy 2</text>
</g>
<!-- document_service&#45;&gt;repositories -->
<g id="edge6" class="edge">
<title>document_service&#45;&gt;repositories</title>
<path fill="none" stroke="#64748b" stroke-width="1.1" d="M473.78,-304.68C478.66,-281.3 487.2,-240.45 492.72,-214.01"/>
<polygon fill="#64748b" stroke="#64748b" stroke-width="1.1" points="495.16,-214.32 494.19,-206.96 490.36,-213.31 495.16,-214.32"/>
</g>
<!-- ingestion_pipeline -->
<g id="node11" class="node">
<title>ingestion_pipeline</title>
<path fill="#fff5f5" stroke="#c8102e" stroke-width="1.2" d="M1094.5,-212.75C1094.5,-212.75 953.5,-212.75 953.5,-212.75 947.5,-212.75 941.5,-206.75 941.5,-200.75 941.5,-200.75 941.5,-174.75 941.5,-174.75 941.5,-168.75 947.5,-162.75 953.5,-162.75 953.5,-162.75 1094.5,-162.75 1094.5,-162.75 1100.5,-162.75 1106.5,-168.75 1106.5,-174.75 1106.5,-174.75 1106.5,-200.75 1106.5,-200.75 1106.5,-206.75 1100.5,-212.75 1094.5,-212.75"/>
<text text-anchor="middle" x="1024" y="-196.95" font-family="Helvetica,sans-Serif" font-size="11.00" fill="#14213d">Multi&#45;format ingestion</text>
<text text-anchor="middle" x="1024" y="-184.95" font-family="Helvetica,sans-Serif" font-size="11.00" fill="#14213d">Page&#45;image rendering</text>
<text text-anchor="middle" x="1024" y="-172.95" font-family="Helvetica,sans-Serif" font-size="11.00" fill="#14213d">Semantic or Docling chunking</text>
</g>
<!-- document_service&#45;&gt;ingestion_pipeline -->
<g id="edge14" class="edge">
<title>document_service&#45;&gt;ingestion_pipeline</title>
<path fill="none" stroke="#64748b" stroke-width="1.1" d="M527.71,-304.62C577.34,-289.91 651.13,-270.13 717,-260.75 764.55,-253.98 887.48,-268.09 933,-252.75 955.04,-245.33 976.47,-230.73 993,-217.35"/>
<polygon fill="#64748b" stroke="#64748b" stroke-width="1.1" points="994.58,-219.22 998.41,-212.87 991.45,-215.45 994.58,-219.22"/>
<text text-anchor="middle" x="743.5" y="-263.55" font-family="Helvetica,sans-Serif" font-size="9.00" fill="#475569">ingestion job</text>
</g>
<!-- uploads -->
<g id="node15" class="node">
<title>uploads</title>
<polygon fill="#f8fafc" stroke="#cbd5e1" stroke-width="1.2" points="378.5,-206.75 375.5,-210.75 354.5,-210.75 351.5,-206.75 231.5,-206.75 231.5,-168.75 378.5,-168.75 378.5,-206.75"/>
<text text-anchor="middle" x="305" y="-190.95" font-family="Helvetica,sans-Serif" font-size="11.00" fill="#14213d">Persistent volume</text>
<text text-anchor="middle" x="305" y="-178.95" font-family="Helvetica,sans-Serif" font-size="11.00" fill="#14213d">Sources + render artifacts</text>
</g>
<!-- document_service&#45;&gt;uploads -->
<g id="edge17" class="edge">
<title>document_service&#45;&gt;uploads</title>
<path fill="none" stroke="#64748b" stroke-width="1.1" d="M447.75,-304.68C418.1,-280.6 365.63,-237.99 333.23,-211.68"/>
<polygon fill="#64748b" stroke="#64748b" stroke-width="1.1" points="334.41,-209.47 327.43,-206.96 331.32,-213.28 334.41,-209.47"/>
<text text-anchor="middle" x="425.5" y="-263.55" font-family="Helvetica,sans-Serif" font-size="9.00" fill="#475569">source files</text>
</g>
<!-- chat_service&#45;&gt;repositories -->
<g id="edge7" class="edge">
<title>chat_service&#45;&gt;repositories</title>
<path fill="none" stroke="#64748b" stroke-width="1.1" d="M627.77,-304.68C600.82,-280.6 553.12,-237.99 523.67,-211.68"/>
<polygon fill="#64748b" stroke="#64748b" stroke-width="1.1" points="525.24,-209.8 518.39,-206.96 521.98,-213.45 525.24,-209.8"/>
</g>
<!-- rag_graph -->
<g id="node12" class="node">
<title>rag_graph</title>
<path fill="#fff5f5" stroke="#c8102e" stroke-width="1.2" d="M1328,-212.75C1328,-212.75 1154,-212.75 1154,-212.75 1148,-212.75 1142,-206.75 1142,-200.75 1142,-200.75 1142,-174.75 1142,-174.75 1142,-168.75 1148,-162.75 1154,-162.75 1154,-162.75 1328,-162.75 1328,-162.75 1334,-162.75 1340,-168.75 1340,-174.75 1340,-174.75 1340,-200.75 1340,-200.75 1340,-206.75 1334,-212.75 1328,-212.75"/>
<text text-anchor="middle" x="1241" y="-196.95" font-family="Helvetica,sans-Serif" font-size="11.00" fill="#14213d">LangGraph Agentic RAG</text>
<text text-anchor="middle" x="1241" y="-184.95" font-family="Helvetica,sans-Serif" font-size="11.00" fill="#14213d">Plan → retrieve → rerank → answer</text>
<text text-anchor="middle" x="1241" y="-172.95" font-family="Helvetica,sans-Serif" font-size="11.00" fill="#14213d">Validate → reflect → finalize</text>
</g>
<!-- chat_service&#45;&gt;rag_graph -->
<g id="edge15" class="edge">
<title>chat_service&#45;&gt;rag_graph</title>
<path fill="none" stroke="#64748b" stroke-width="1.1" d="M724.63,-307.72C730.5,-306.68 736.34,-305.68 742,-304.75 911.09,-277.07 961.24,-306.31 1124,-252.75 1150.22,-244.12 1177.4,-229.65 1198.95,-216.64"/>
<polygon fill="#64748b" stroke="#64748b" stroke-width="1.1" points="1200.47,-218.59 1205.16,-212.84 1197.91,-214.41 1200.47,-218.59"/>
<text text-anchor="middle" x="1148" y="-263.55" font-family="Helvetica,sans-Serif" font-size="9.00" fill="#475569">question + session history</text>
</g>
<!-- usage_service&#45;&gt;repositories -->
<g id="edge8" class="edge">
<title>usage_service&#45;&gt;repositories</title>
<path fill="none" stroke="#64748b" stroke-width="1.1" d="M777.03,-304.72C746.94,-295.37 710.26,-283.29 678,-270.75 630.24,-252.18 577.01,-227.4 540.9,-209.96"/>
<polygon fill="#64748b" stroke="#64748b" stroke-width="1.1" points="541.73,-207.64 534.37,-206.79 539.6,-212.05 541.73,-207.64"/>
</g>
<!-- openai -->
<g id="node17" class="node">
<title>openai</title>
<path fill="#f8fafc" stroke="#cbd5e1" stroke-width="1.2" d="M1500,-69.38C1500,-69.38 1376,-69.38 1376,-69.38 1370,-69.38 1364,-63.38 1364,-57.38 1364,-57.38 1364,-43.38 1364,-43.38 1364,-37.38 1370,-31.38 1376,-31.38 1376,-31.38 1500,-31.38 1500,-31.38 1506,-31.38 1512,-37.38 1512,-43.38 1512,-43.38 1512,-57.38 1512,-57.38 1512,-63.38 1506,-69.38 1500,-69.38"/>
<text text-anchor="middle" x="1438" y="-53.58" font-family="Helvetica,sans-Serif" font-size="11.00" fill="#14213d">OpenAI APIs</text>
<text text-anchor="middle" x="1438" y="-41.58" font-family="Helvetica,sans-Serif" font-size="11.00" fill="#14213d">Responses + embeddings</text>
</g>
<!-- usage_service&#45;&gt;openai -->
<g id="edge22" class="edge">
<title>usage_service&#45;&gt;openai</title>
<path fill="none" stroke="#64748b" stroke-width="1.1" stroke-dasharray="5,2" d="M916.5,-321.55C1044.1,-318.08 1289.02,-304.65 1356,-252.75 1412.41,-209.04 1430.23,-120.06 1435.68,-76.51"/>
<polygon fill="#64748b" stroke="#64748b" stroke-width="1.1" points="1438.13,-76.67 1436.51,-69.43 1433.27,-76.1 1438.13,-76.67"/>
</g>
<!-- postgres -->
<g id="node14" class="node">
<title>postgres</title>
<path fill="#f8fafc" stroke="#cbd5e1" stroke-width="1.2" d="M218,-71.85C218,-74.49 172.73,-76.63 117,-76.63 61.27,-76.63 16,-74.49 16,-71.85 16,-71.85 16,-28.9 16,-28.9 16,-26.26 61.27,-24.12 117,-24.12 172.73,-24.12 218,-26.26 218,-28.9 218,-28.9 218,-71.85 218,-71.85"/>
<path fill="none" stroke="#cbd5e1" stroke-width="1.2" d="M218,-71.85C218,-69.22 172.73,-67.08 117,-67.08 61.27,-67.08 16,-69.22 16,-71.85"/>
<text text-anchor="middle" x="117" y="-53.58" font-family="Helvetica,sans-Serif" font-size="11.00" fill="#14213d">PostgreSQL 16</text>
<text text-anchor="middle" x="117" y="-41.58" font-family="Helvetica,sans-Serif" font-size="11.00" fill="#14213d">Users, documents, jobs, chats, usage</text>
</g>
<!-- repositories&#45;&gt;postgres -->
<g id="edge16" class="edge">
<title>repositories&#45;&gt;postgres</title>
<path fill="none" stroke="#64748b" stroke-width="1.1" d="M425.19,-168.74C372.01,-154.74 298.56,-133.66 236,-109.38 214.06,-100.86 190.63,-89.87 170.41,-79.75"/>
<polygon fill="#64748b" stroke="#64748b" stroke-width="1.1" points="171.32,-77.47 163.96,-76.51 169.11,-81.84 171.32,-77.47"/>
<text text-anchor="middle" x="310" y="-121.55" font-family="Helvetica,sans-Serif" font-size="9.00" fill="#475569">transactions</text>
</g>
<!-- qdrant -->
<g id="node16" class="node">
<title>qdrant</title>
<path fill="#f8fafc" stroke="#cbd5e1" stroke-width="1.2" d="M378.5,-78.4C378.5,-81.83 350.49,-84.63 316,-84.63 281.51,-84.63 253.5,-81.83 253.5,-78.4 253.5,-78.4 253.5,-22.35 253.5,-22.35 253.5,-18.92 281.51,-16.12 316,-16.12 350.49,-16.12 378.5,-18.92 378.5,-22.35 378.5,-22.35 378.5,-78.4 378.5,-78.4"/>
<path fill="none" stroke="#cbd5e1" stroke-width="1.2" d="M378.5,-78.4C378.5,-74.96 350.49,-72.17 316,-72.17 281.51,-72.17 253.5,-74.96 253.5,-78.4"/>
<text text-anchor="middle" x="316" y="-59.58" font-family="Helvetica,sans-Serif" font-size="11.00" fill="#14213d">External Qdrant</text>
<text text-anchor="middle" x="316" y="-47.58" font-family="Helvetica,sans-Serif" font-size="11.00" fill="#14213d">semantic_chunks</text>
<text text-anchor="middle" x="316" y="-35.58" font-family="Helvetica,sans-Serif" font-size="11.00" fill="#14213d">docling_fixed_chunks</text>
</g>
<!-- ingestion_pipeline&#45;&gt;qdrant -->
<g id="edge18" class="edge">
<title>ingestion_pipeline&#45;&gt;qdrant</title>
<path fill="none" stroke="#64748b" stroke-width="1.1" d="M941.27,-162.72C938.48,-162.04 935.72,-161.38 933,-160.75 736.25,-115.33 500.45,-78.28 385.66,-61.33"/>
<polygon fill="#64748b" stroke="#64748b" stroke-width="1.1" points="385.89,-58.89 378.61,-60.29 385.18,-63.74 385.89,-58.89"/>
<text text-anchor="middle" x="826.5" y="-121.55" font-family="Helvetica,sans-Serif" font-size="9.00" fill="#475569">owner&#45;scoped chunks</text>
</g>
<!-- ingestion_pipeline&#45;&gt;openai -->
<g id="edge19" class="edge">
<title>ingestion_pipeline&#45;&gt;openai</title>
<path fill="none" stroke="#64748b" stroke-width="1.1" d="M1106.62,-165.24C1112.84,-163.7 1119.01,-162.19 1125,-160.75 1227.27,-136.22 1259.85,-152 1356,-109.38 1376.12,-100.45 1396.34,-86.23 1411.67,-74.1"/>
<polygon fill="#64748b" stroke="#64748b" stroke-width="1.1" points="1413.59,-75.7 1417.5,-69.39 1410.51,-71.88 1413.59,-75.7"/>
</g>
<!-- fallback -->
<g id="node13" class="node">
<title>fallback</title>
<path fill="#ffffff" stroke="#cbd5e1" stroke-width="1.2" d="M1303.5,-69.38C1303.5,-69.38 1178.5,-69.38 1178.5,-69.38 1172.5,-69.38 1166.5,-63.38 1166.5,-57.38 1166.5,-57.38 1166.5,-43.38 1166.5,-43.38 1166.5,-37.38 1172.5,-31.38 1178.5,-31.38 1178.5,-31.38 1303.5,-31.38 1303.5,-31.38 1309.5,-31.38 1315.5,-37.38 1315.5,-43.38 1315.5,-43.38 1315.5,-57.38 1315.5,-57.38 1315.5,-63.38 1309.5,-69.38 1303.5,-69.38"/>
<text text-anchor="middle" x="1241" y="-53.58" font-family="Helvetica,sans-Serif" font-size="11.00" fill="#14213d">Conversational fallback</text>
<text text-anchor="middle" x="1241" y="-41.58" font-family="Helvetica,sans-Serif" font-size="11.00" fill="#14213d">Active&#45;session history only</text>
</g>
<!-- rag_graph&#45;&gt;fallback -->
<g id="edge9" class="edge">
<title>rag_graph&#45;&gt;fallback</title>
<path fill="none" stroke="#64748b" stroke-width="1.1" stroke-dasharray="5,2" d="M1241,-162.55C1241,-138.42 1241,-101.52 1241,-76.93"/>
<polygon fill="#64748b" stroke="#64748b" stroke-width="1.1" points="1243.45,-76.73 1241,-69.73 1238.55,-76.73 1243.45,-76.73"/>
</g>
<!-- rag_graph&#45;&gt;qdrant -->
<g id="edge20" class="edge">
<title>rag_graph&#45;&gt;qdrant</title>
<path fill="none" stroke="#64748b" stroke-width="1.1" d="M1141.75,-164.66C1135.75,-163.33 1129.79,-162.02 1124,-160.75 1037.83,-141.85 1017.08,-132.91 930,-118.75 733.79,-86.83 499.8,-65.81 385.62,-56.64"/>
<polygon fill="#64748b" stroke="#64748b" stroke-width="1.1" points="385.78,-54.2 378.61,-56.08 385.39,-59.08 385.78,-54.2"/>
<text text-anchor="middle" x="1028.5" y="-121.55" font-family="Helvetica,sans-Serif" font-size="9.00" fill="#475569">mandatory owner filter</text>
</g>
<!-- rag_graph&#45;&gt;openai -->
<g id="edge21" class="edge">
<title>rag_graph&#45;&gt;openai</title>
<path fill="none" stroke="#64748b" stroke-width="1.1" d="M1277.15,-162.74C1299.87,-147.57 1329.76,-127.48 1356,-109.38 1372.85,-97.75 1391.5,-84.59 1406.74,-73.74"/>
<polygon fill="#64748b" stroke="#64748b" stroke-width="1.1" points="1408.34,-75.61 1412.62,-69.56 1405.5,-71.62 1408.34,-75.61"/>
</g>
</g>
</svg>
