<?xml version="1.0" encoding="UTF-8" standalone="no"?>
<!DOCTYPE svg PUBLIC "-//W3C//DTD SVG 1.1//EN"
 "http://www.w3.org/Graphics/SVG/1.1/DTD/svg11.dtd">
<!-- Generated by graphviz version 2.43.0 (0)
 -->
<!-- Title: thy_agentic_rag_system Pages: 1 -->
<svg width="1976pt" height="1104pt"
 viewBox="0.00 0.00 1976.40 1104.42" xmlns="http://www.w3.org/2000/svg" xmlns:xlink="http://www.w3.org/1999/xlink">
<g id="graph0" class="graph" transform="scale(1 1) rotate(0) translate(25.2 1079.22)">
<title>thy_agentic_rag_system</title>
<polygon fill="white" stroke="transparent" points="-25.2,25.2 -25.2,-1079.22 1951.2,-1079.22 1951.2,25.2 -25.2,25.2"/>
<text text-anchor="middle" x="353.5" y="-1032.42" font-family="Helvetica,sans-Serif" font-size="22.00">THY&#45;Branded Agentic RAG — Fully Asynchronous System Architecture</text>
<g id="clust1" class="cluster">
<title>cluster_frontend</title>
<path fill="white" stroke="#e2e8f0" d="M700,-691.25C700,-691.25 894,-691.25 894,-691.25 900,-691.25 906,-697.25 906,-703.25 906,-703.25 906,-921.25 906,-921.25 906,-927.25 900,-933.25 894,-933.25 894,-933.25 700,-933.25 700,-933.25 694,-933.25 688,-927.25 688,-921.25 688,-921.25 688,-703.25 688,-703.25 688,-697.25 694,-691.25 700,-691.25"/>
<text text-anchor="middle" x="740" y="-911.65" font-family="Helvetica,sans-Serif" font-size="22.00">Frontend</text>
</g>
<g id="clust2" class="cluster">
<title>cluster_backend</title>
<path fill="white" stroke="#e2e8f0" d="M530,-193.25C530,-193.25 1151,-193.25 1151,-193.25 1157,-193.25 1163,-199.25 1163,-205.25 1163,-205.25 1163,-635.25 1163,-635.25 1163,-641.25 1157,-647.25 1151,-647.25 1151,-647.25 530,-647.25 530,-647.25 524,-647.25 518,-641.25 518,-635.25 518,-635.25 518,-205.25 518,-205.25 518,-199.25 524,-193.25 530,-193.25"/>
<text text-anchor="middle" x="654.5" y="-625.65" font-family="Helvetica,sans-Serif" font-size="22.00">Async FastAPI application</text>
</g>
<g id="clust3" class="cluster">
<title>cluster_model</title>
<path fill="white" stroke="#e2e8f0" d="M1183,-31.62C1183,-31.62 1650,-31.62 1650,-31.62 1656,-31.62 1662,-37.62 1662,-43.62 1662,-43.62 1662,-279.25 1662,-279.25 1662,-285.25 1656,-291.25 1650,-291.25 1650,-291.25 1183,-291.25 1183,-291.25 1177,-291.25 1171,-285.25 1171,-279.25 1171,-279.25 1171,-43.62 1171,-43.62 1171,-37.62 1177,-31.62 1183,-31.62"/>
<text text-anchor="middle" x="1323.5" y="-269.65" font-family="Helvetica,sans-Serif" font-size="22.00">Model and orchestration layer</text>
</g>
<g id="clust4" class="cluster">
<title>cluster_data</title>
<path fill="white" stroke="#e2e8f0" d="M20,-8C20,-8 498,-8 498,-8 504,-8 510,-14 510,-20 510,-20 510,-267.25 510,-267.25 510,-273.25 504,-279.25 498,-279.25 498,-279.25 20,-279.25 20,-279.25 14,-279.25 8,-273.25 8,-267.25 8,-267.25 8,-20 8,-20 8,-14 14,-8 20,-8"/>
<text text-anchor="middle" x="74" y="-257.65" font-family="Helvetica,sans-Serif" font-size="22.00">Persistence</text>
</g>
<g id="clust5" class="cluster">
<title>cluster_provider</title>
<path fill="white" stroke="#e2e8f0" d="M1682,-31.62C1682,-31.62 1906,-31.62 1906,-31.62 1912,-31.62 1918,-37.62 1918,-43.62 1918,-43.62 1918,-105.62 1918,-105.62 1918,-111.62 1912,-117.62 1906,-117.62 1906,-117.62 1682,-117.62 1682,-117.62 1676,-117.62 1670,-111.62 1670,-105.62 1670,-105.62 1670,-43.62 1670,-43.62 1670,-37.62 1676,-31.62 1682,-31.62"/>
<text text-anchor="middle" x="1794" y="-96.03" font-family="Helvetica,sans-Serif" font-size="22.00">External model provider</text>
</g>
<!-- user -->
<g id="node1" class="node">
<title>user</title>
<ellipse fill="#fff5f5" stroke="#c8102e" stroke-width="1.2" cx="874" cy="-1003.63" rx="61.54" ry="18.27"/>
<text text-anchor="middle" x="874" y="-1000.83" font-family="Helvetica,sans-Serif" font-size="11.00" fill="#14213d">Browser user</text>
</g>
<!-- react -->
<g id="node2" class="node">
<title>react</title>
<path fill="#fff5f5" stroke="#c8102e" stroke-width="1.2" d="M886,-893.25C886,-893.25 708,-893.25 708,-893.25 702,-893.25 696,-887.25 696,-881.25 696,-881.25 696,-855.25 696,-855.25 696,-849.25 702,-843.25 708,-843.25 708,-843.25 886,-843.25 886,-843.25 892,-843.25 898,-849.25 898,-855.25 898,-855.25 898,-881.25 898,-881.25 898,-887.25 892,-893.25 886,-893.25"/>
<text text-anchor="middle" x="797" y="-877.45" font-family="Helvetica,sans-Serif" font-size="11.00" fill="#14213d">React 19 + TypeScript</text>
<text text-anchor="middle" x="797" y="-865.45" font-family="Helvetica,sans-Serif" font-size="11.00" fill="#14213d">Tailwind + TanStack Query + Zustand</text>
<text text-anchor="middle" x="797" y="-853.45" font-family="Helvetica,sans-Serif" font-size="11.00" fill="#14213d">Async mutations + batch job polling</text>
</g>
<!-- user&#45;&gt;react -->
<g id="edge10" class="edge">
<title>user&#45;&gt;react</title>
<path fill="none" stroke="#64748b" stroke-width="1.1" d="M864.09,-985.47C851.61,-963.84 829.93,-926.3 814.6,-899.74"/>
<polygon fill="#64748b" stroke="#64748b" stroke-width="1.1" points="816.67,-898.42 811.05,-893.58 812.42,-900.87 816.67,-898.42"/>
<text text-anchor="middle" x="857" y="-944.05" font-family="Helvetica,sans-Serif" font-size="9.00" fill="#475569">HTTPS</text>
</g>
<!-- streamlit -->
<g id="node4" class="node">
<title>streamlit</title>
<path fill="#f8fafc" stroke="#cbd5e1" stroke-width="1.2" stroke-dasharray="5,2" d="M886,-809.25C886,-809.25 782,-809.25 782,-809.25 776,-809.25 770,-803.25 770,-797.25 770,-797.25 770,-783.25 770,-783.25 770,-777.25 776,-771.25 782,-771.25 782,-771.25 886,-771.25 886,-771.25 892,-771.25 898,-777.25 898,-783.25 898,-783.25 898,-797.25 898,-797.25 898,-803.25 892,-809.25 886,-809.25"/>
<text text-anchor="middle" x="834" y="-793.45" font-family="Helvetica,sans-Serif" font-size="11.00" fill="#14213d">Optional Streamlit</text>
<text text-anchor="middle" x="834" y="-781.45" font-family="Helvetica,sans-Serif" font-size="11.00" fill="#14213d">Compatibility interface</text>
</g>
<!-- user&#45;&gt;streamlit -->
<g id="edge11" class="edge">
<title>user&#45;&gt;streamlit</title>
<path fill="none" stroke="#64748b" stroke-width="1.1" d="M887.95,-985.63C897.94,-972.29 910.55,-952.78 916,-933.25 926.75,-894.72 935.28,-878.3 916,-843.25 909.15,-830.8 897.92,-820.91 885.94,-813.24"/>
<polygon fill="#64748b" stroke="#64748b" stroke-width="1.1" points="886.88,-810.95 879.62,-809.43 884.35,-815.15 886.88,-810.95"/>
<text text-anchor="middle" x="930" y="-944.05" font-family="Helvetica,sans-Serif" font-size="9.00" fill="#475569">optional</text>
</g>
<!-- nginx -->
<g id="node3" class="node">
<title>nginx</title>
<path fill="#ffffff" stroke="#cbd5e1" stroke-width="1.2" d="M863.5,-737.25C863.5,-737.25 708.5,-737.25 708.5,-737.25 702.5,-737.25 696.5,-731.25 696.5,-725.25 696.5,-725.25 696.5,-711.25 696.5,-711.25 696.5,-705.25 702.5,-699.25 708.5,-699.25 708.5,-699.25 863.5,-699.25 863.5,-699.25 869.5,-699.25 875.5,-705.25 875.5,-711.25 875.5,-711.25 875.5,-725.25 875.5,-725.25 875.5,-731.25 869.5,-737.25 863.5,-737.25"/>
<text text-anchor="middle" x="786" y="-721.45" font-family="Helvetica,sans-Serif" font-size="11.00" fill="#14213d">Nginx</text>
<text text-anchor="middle" x="786" y="-709.45" font-family="Helvetica,sans-Serif" font-size="11.00" fill="#14213d">Static delivery + async API proxy</text>
</g>
<!-- react&#45;&gt;nginx -->
<g id="edge1" class="edge">
<title>react&#45;&gt;nginx</title>
<path fill="none" stroke="#64748b" stroke-width="1.1" d="M782.3,-843.03C777,-832.96 771.67,-820.91 769,-809.25 763.99,-787.35 769.69,-762.22 775.8,-744.09"/>
<polygon fill="#64748b" stroke="#64748b" stroke-width="1.1" points="778.19,-744.68 778.23,-737.26 773.57,-743.04 778.19,-744.68"/>
</g>
<!-- api -->
<g id="node5" class="node">
<title>api</title>
<path fill="#f8fafc" stroke="#cbd5e1" stroke-width="1.2" d="M942,-607.25C942,-607.25 804,-607.25 804,-607.25 798,-607.25 792,-601.25 792,-595.25 792,-595.25 792,-581.25 792,-581.25 792,-575.25 798,-569.25 804,-569.25 804,-569.25 942,-569.25 942,-569.25 948,-569.25 954,-575.25 954,-581.25 954,-581.25 954,-595.25 954,-595.25 954,-601.25 948,-607.25 942,-607.25"/>
<text text-anchor="middle" x="873" y="-591.45" font-family="Helvetica,sans-Serif" font-size="11.00" fill="#14213d">Async REST API + OpenAPI</text>
<text text-anchor="middle" x="873" y="-579.45" font-family="Helvetica,sans-Serif" font-size="11.00" fill="#14213d">Pydantic v2 + request IDs</text>
</g>
<!-- nginx&#45;&gt;api -->
<g id="edge12" class="edge">
<title>nginx&#45;&gt;api</title>
<path fill="none" stroke="#64748b" stroke-width="1.1" d="M790.16,-699.22C793.65,-686.32 799.45,-668.9 808,-655.25 818.01,-639.27 832.48,-624.08 845.23,-612.31"/>
<polygon fill="#64748b" stroke="#64748b" stroke-width="1.1" points="847.02,-614 850.58,-607.49 843.74,-610.36 847.02,-614"/>
<text text-anchor="middle" x="864" y="-658.05" font-family="Helvetica,sans-Serif" font-size="9.00" fill="#475569">async REST + X&#45;Username</text>
</g>
<!-- streamlit&#45;&gt;api -->
<g id="edge13" class="edge">
<title>streamlit&#45;&gt;api</title>
<path fill="none" stroke="#64748b" stroke-width="1.1" d="M859.29,-771.11C870.72,-761.95 883.7,-750.07 893,-737.25 913.45,-709.05 916.97,-699.37 924,-665.25 928.11,-645.29 915.31,-626.26 901.5,-612.23"/>
<polygon fill="#64748b" stroke="#64748b" stroke-width="1.1" points="903.13,-610.4 896.4,-607.29 899.73,-613.92 903.13,-610.4"/>
<text text-anchor="middle" x="960" y="-716.05" font-family="Helvetica,sans-Serif" font-size="9.00" fill="#475569">REST + X&#45;Username</text>
</g>
<!-- identity -->
<g id="node6" class="node">
<title>identity</title>
<path fill="#fff5f5" stroke="#c8102e" stroke-width="1.2" d="M951,-500.25C951,-500.25 795,-500.25 795,-500.25 789,-500.25 783,-494.25 783,-488.25 783,-488.25 783,-474.25 783,-474.25 783,-468.25 789,-462.25 795,-462.25 795,-462.25 951,-462.25 951,-462.25 957,-462.25 963,-468.25 963,-474.25 963,-474.25 963,-488.25 963,-488.25 963,-494.25 957,-500.25 951,-500.25"/>
<text text-anchor="middle" x="873" y="-484.45" font-family="Helvetica,sans-Serif" font-size="11.00" fill="#14213d">Tenant boundary</text>
<text text-anchor="middle" x="873" y="-472.45" font-family="Helvetica,sans-Serif" font-size="11.00" fill="#14213d">Username → internal user UUID</text>
</g>
<!-- api&#45;&gt;identity -->
<g id="edge2" class="edge">
<title>api&#45;&gt;identity</title>
<path fill="none" stroke="#64748b" stroke-width="1.1" d="M873,-568.96C873,-551.95 873,-526.44 873,-507.49"/>
<polygon fill="#64748b" stroke="#64748b" stroke-width="1.1" points="875.45,-507.33 873,-500.33 870.55,-507.33 875.45,-507.33"/>
</g>
<!-- document_service -->
<g id="node7" class="node">
<title>document_service</title>
<path fill="#ffffff" stroke="#cbd5e1" stroke-width="1.2" d="M736.5,-393.25C736.5,-393.25 537.5,-393.25 537.5,-393.25 531.5,-393.25 525.5,-387.25 525.5,-381.25 525.5,-381.25 525.5,-355.25 525.5,-355.25 525.5,-349.25 531.5,-343.25 537.5,-343.25 537.5,-343.25 736.5,-343.25 736.5,-343.25 742.5,-343.25 748.5,-349.25 748.5,-355.25 748.5,-355.25 748.5,-381.25 748.5,-381.25 748.5,-387.25 742.5,-393.25 736.5,-393.25"/>
<text text-anchor="middle" x="637" y="-377.45" font-family="Helvetica,sans-Serif" font-size="11.00" fill="#14213d">Documents + ingestion</text>
<text text-anchor="middle" x="637" y="-365.45" font-family="Helvetica,sans-Serif" font-size="11.00" fill="#14213d">Concurrent jobs + one&#45;active&#45;job invariant</text>
<text text-anchor="middle" x="637" y="-353.45" font-family="Helvetica,sans-Serif" font-size="11.00" fill="#14213d">Cancellation&#45;safe lifecycle</text>
</g>
<!-- identity&#45;&gt;document_service -->
<g id="edge3" class="edge">
<title>identity&#45;&gt;document_service</title>
<path fill="none" stroke="#64748b" stroke-width="1.1" d="M834.56,-462.17C796.67,-444.35 738.29,-416.89 694.8,-396.44"/>
<polygon fill="#64748b" stroke="#64748b" stroke-width="1.1" points="695.61,-394.11 688.23,-393.35 693.52,-398.54 695.61,-394.11"/>
</g>
<!-- chat_service -->
<g id="node8" class="node">
<title>chat_service</title>
<path fill="#ffffff" stroke="#cbd5e1" stroke-width="1.2" d="M950,-393.25C950,-393.25 796,-393.25 796,-393.25 790,-393.25 784,-387.25 784,-381.25 784,-381.25 784,-355.25 784,-355.25 784,-349.25 790,-343.25 796,-343.25 796,-343.25 950,-343.25 950,-343.25 956,-343.25 962,-349.25 962,-355.25 962,-355.25 962,-381.25 962,-381.25 962,-387.25 956,-393.25 950,-393.25"/>
<text text-anchor="middle" x="873" y="-377.45" font-family="Helvetica,sans-Serif" font-size="11.00" fill="#14213d">Chat sessions</text>
<text text-anchor="middle" x="873" y="-365.45" font-family="Helvetica,sans-Serif" font-size="11.00" fill="#14213d">Per&#45;session ordered async turns</text>
<text text-anchor="middle" x="873" y="-353.45" font-family="Helvetica,sans-Serif" font-size="11.00" fill="#14213d">Bounded short&#45;term history</text>
</g>
<!-- identity&#45;&gt;chat_service -->
<g id="edge4" class="edge">
<title>identity&#45;&gt;chat_service</title>
<path fill="none" stroke="#64748b" stroke-width="1.1" d="M873,-461.92C873,-445.25 873,-420.3 873,-400.48"/>
<polygon fill="#64748b" stroke="#64748b" stroke-width="1.1" points="875.45,-400.44 873,-393.44 870.55,-400.44 875.45,-400.44"/>
</g>
<!-- usage_service -->
<g id="node9" class="node">
<title>usage_service</title>
<path fill="#ffffff" stroke="#cbd5e1" stroke-width="1.2" d="M1142.5,-387.25C1142.5,-387.25 1009.5,-387.25 1009.5,-387.25 1003.5,-387.25 997.5,-381.25 997.5,-375.25 997.5,-375.25 997.5,-361.25 997.5,-361.25 997.5,-355.25 1003.5,-349.25 1009.5,-349.25 1009.5,-349.25 1142.5,-349.25 1142.5,-349.25 1148.5,-349.25 1154.5,-355.25 1154.5,-361.25 1154.5,-361.25 1154.5,-375.25 1154.5,-375.25 1154.5,-381.25 1148.5,-387.25 1142.5,-387.25"/>
<text text-anchor="middle" x="1076" y="-371.45" font-family="Helvetica,sans-Serif" font-size="11.00" fill="#14213d">Usage + pricing</text>
<text text-anchor="middle" x="1076" y="-359.45" font-family="Helvetica,sans-Serif" font-size="11.00" fill="#14213d">Tokens, known cost, version</text>
</g>
<!-- identity&#45;&gt;usage_service -->
<g id="edge5" class="edge">
<title>identity&#45;&gt;usage_service</title>
<path fill="none" stroke="#64748b" stroke-width="1.1" d="M906.07,-462.17C941.75,-442.66 998.56,-411.59 1036.55,-390.82"/>
<polygon fill="#64748b" stroke="#64748b" stroke-width="1.1" points="1037.98,-392.83 1042.95,-387.32 1035.63,-388.53 1037.98,-392.83"/>
</g>
<!-- repositories -->
<g id="node10" class="node">
<title>repositories</title>
<path fill="#ffffff" stroke="#cbd5e1" stroke-width="1.2" d="M848,-239.25C848,-239.25 666,-239.25 666,-239.25 660,-239.25 654,-233.25 654,-227.25 654,-227.25 654,-213.25 654,-213.25 654,-207.25 660,-201.25 666,-201.25 666,-201.25 848,-201.25 848,-201.25 854,-201.25 860,-207.25 860,-213.25 860,-213.25 860,-227.25 860,-227.25 860,-233.25 854,-239.25 848,-239.25"/>
<text text-anchor="middle" x="757" y="-223.45" font-family="Helvetica,sans-Serif" font-size="11.00" fill="#14213d">Owner&#45;scoped repositories</text>
<text text-anchor="middle" x="757" y="-211.45" font-family="Helvetica,sans-Serif" font-size="11.00" fill="#14213d">Async SQLAlchemy 2 + AsyncSession</text>
</g>
<!-- document_service&#45;&gt;repositories -->
<g id="edge6" class="edge">
<title>document_service&#45;&gt;repositories</title>
<path fill="none" stroke="#64748b" stroke-width="1.1" d="M656.82,-343.14C679.19,-315.92 715.36,-271.91 737.57,-244.89"/>
<polygon fill="#64748b" stroke="#64748b" stroke-width="1.1" points="739.54,-246.35 742.09,-239.39 735.75,-243.24 739.54,-246.35"/>
</g>
<!-- ingestion_pipeline -->
<g id="node11" class="node">
<title>ingestion_pipeline</title>
<path fill="#fff5f5" stroke="#c8102e" stroke-width="1.2" d="M1387,-251.25C1387,-251.25 1191,-251.25 1191,-251.25 1185,-251.25 1179,-245.25 1179,-239.25 1179,-239.25 1179,-201.25 1179,-201.25 1179,-195.25 1185,-189.25 1191,-189.25 1191,-189.25 1387,-189.25 1387,-189.25 1393,-189.25 1399,-195.25 1399,-201.25 1399,-201.25 1399,-239.25 1399,-239.25 1399,-245.25 1393,-251.25 1387,-251.25"/>
<text text-anchor="middle" x="1289" y="-235.45" font-family="Helvetica,sans-Serif" font-size="11.00" fill="#14213d">Bounded async ingestion</text>
<text text-anchor="middle" x="1289" y="-223.45" font-family="Helvetica,sans-Serif" font-size="11.00" fill="#14213d">Concurrent documents + semantic pages</text>
<text text-anchor="middle" x="1289" y="-211.45" font-family="Helvetica,sans-Serif" font-size="11.00" fill="#14213d">Semantic or Docling chunking</text>
<text text-anchor="middle" x="1289" y="-199.45" font-family="Helvetica,sans-Serif" font-size="11.00" fill="#14213d">Batched embeddings + Qdrant upserts</text>
</g>
<!-- document_service&#45;&gt;ingestion_pipeline -->
<g id="edge14" class="edge">
<title>document_service&#45;&gt;ingestion_pipeline</title>
<path fill="none" stroke="#64748b" stroke-width="1.1" d="M693.27,-343.21C733.15,-327.46 788.35,-308.18 839,-299.25 875.34,-292.85 1135.53,-301.44 1171,-291.25 1196.84,-283.83 1222.83,-269.34 1243.81,-255.47"/>
<polygon fill="#64748b" stroke="#64748b" stroke-width="1.1" points="1245.44,-257.33 1249.88,-251.39 1242.7,-253.26 1245.44,-257.33"/>
<text text-anchor="middle" x="890.5" y="-302.05" font-family="Helvetica,sans-Serif" font-size="9.00" fill="#475569">bounded concurrent jobs</text>
</g>
<!-- uploads -->
<g id="node15" class="node">
<title>uploads</title>
<polygon fill="#f8fafc" stroke="#cbd5e1" stroke-width="1.2" points="501.5,-239.25 498.5,-243.25 477.5,-243.25 474.5,-239.25 354.5,-239.25 354.5,-201.25 501.5,-201.25 501.5,-239.25"/>
<text text-anchor="middle" x="428" y="-223.45" font-family="Helvetica,sans-Serif" font-size="11.00" fill="#14213d">Persistent volume</text>
<text text-anchor="middle" x="428" y="-211.45" font-family="Helvetica,sans-Serif" font-size="11.00" fill="#14213d">Sources + render artifacts</text>
</g>
<!-- document_service&#45;&gt;uploads -->
<g id="edge17" class="edge">
<title>document_service&#45;&gt;uploads</title>
<path fill="none" stroke="#64748b" stroke-width="1.1" d="M592.65,-343.14C567.72,-328.99 536.4,-310.21 510,-291.25 489.96,-276.86 468.82,-258.73 453.02,-244.52"/>
<polygon fill="#64748b" stroke="#64748b" stroke-width="1.1" points="454.29,-242.37 447.46,-239.48 451,-246 454.29,-242.37"/>
<text text-anchor="middle" x="556.5" y="-302.05" font-family="Helvetica,sans-Serif" font-size="9.00" fill="#475569">source files</text>
</g>
<!-- chat_service&#45;&gt;repositories -->
<g id="edge7" class="edge">
<title>chat_service&#45;&gt;repositories</title>
<path fill="none" stroke="#64748b" stroke-width="1.1" d="M817.37,-343.17C802.67,-334.41 788.11,-323.16 778,-309.25 764.71,-290.97 759.73,-265.43 757.91,-246.58"/>
<polygon fill="#64748b" stroke="#64748b" stroke-width="1.1" points="760.34,-246.24 757.34,-239.45 755.46,-246.63 760.34,-246.24"/>
</g>
<!-- rag_graph -->
<g id="node12" class="node">
<title>rag_graph</title>
<path fill="#fff5f5" stroke="#c8102e" stroke-width="1.2" d="M1641.5,-251.25C1641.5,-251.25 1446.5,-251.25 1446.5,-251.25 1440.5,-251.25 1434.5,-245.25 1434.5,-239.25 1434.5,-239.25 1434.5,-201.25 1434.5,-201.25 1434.5,-195.25 1440.5,-189.25 1446.5,-189.25 1446.5,-189.25 1641.5,-189.25 1641.5,-189.25 1647.5,-189.25 1653.5,-195.25 1653.5,-201.25 1653.5,-201.25 1653.5,-239.25 1653.5,-239.25 1653.5,-245.25 1647.5,-251.25 1641.5,-251.25"/>
<text text-anchor="middle" x="1544" y="-235.45" font-family="Helvetica,sans-Serif" font-size="11.00" fill="#14213d">Async LangGraph Agentic RAG</text>
<text text-anchor="middle" x="1544" y="-223.45" font-family="Helvetica,sans-Serif" font-size="11.00" fill="#14213d">Generate exactly 5 query variants</text>
<text text-anchor="middle" x="1544" y="-211.45" font-family="Helvetica,sans-Serif" font-size="11.00" fill="#14213d">Send map → parallel retrieval → reducer</text>
<text text-anchor="middle" x="1544" y="-199.45" font-family="Helvetica,sans-Serif" font-size="11.00" fill="#14213d">Rerank → answer → validate → reflect</text>
</g>
<!-- chat_service&#45;&gt;rag_graph -->
<g id="edge15" class="edge">
<title>chat_service&#45;&gt;rag_graph</title>
<path fill="none" stroke="#64748b" stroke-width="1.1" d="M962.19,-346.53C968.21,-345.35 974.18,-344.25 980,-343.25 1172.79,-310.25 1230.8,-351.12 1417,-291.25 1443.51,-282.73 1470.82,-268.5 1493.29,-255.09"/>
<polygon fill="#64748b" stroke="#64748b" stroke-width="1.1" points="1494.77,-257.06 1499.49,-251.34 1492.23,-252.87 1494.77,-257.06"/>
<text text-anchor="middle" x="1449" y="-302.05" font-family="Helvetica,sans-Serif" font-size="9.00" fill="#475569">await question + session history</text>
</g>
<!-- usage_service&#45;&gt;repositories -->
<g id="edge8" class="edge">
<title>usage_service&#45;&gt;repositories</title>
<path fill="none" stroke="#64748b" stroke-width="1.1" d="M1006.13,-349.23C997.35,-347.13 988.48,-345.08 980,-343.25 897.86,-325.49 859.51,-361.88 794,-309.25 774.78,-293.81 765.41,-266.61 760.92,-246.52"/>
<polygon fill="#64748b" stroke="#64748b" stroke-width="1.1" points="763.29,-245.85 759.48,-239.48 758.48,-246.83 763.29,-245.85"/>
</g>
<!-- openai -->
<g id="node17" class="node">
<title>openai</title>
<path fill="#f8fafc" stroke="#cbd5e1" stroke-width="1.2" d="M1836,-77.62C1836,-77.62 1690,-77.62 1690,-77.62 1684,-77.62 1678,-71.62 1678,-65.62 1678,-65.62 1678,-51.62 1678,-51.62 1678,-45.62 1684,-39.62 1690,-39.62 1690,-39.62 1836,-39.62 1836,-39.62 1842,-39.62 1848,-45.62 1848,-51.62 1848,-51.62 1848,-65.62 1848,-65.62 1848,-71.62 1842,-77.62 1836,-77.62"/>
<text text-anchor="middle" x="1763" y="-61.83" font-family="Helvetica,sans-Serif" font-size="11.00" fill="#14213d">OpenAI APIs via AsyncOpenAI</text>
<text text-anchor="middle" x="1763" y="-49.83" font-family="Helvetica,sans-Serif" font-size="11.00" fill="#14213d">Responses + embeddings</text>
</g>
<!-- usage_service&#45;&gt;openai -->
<g id="edge22" class="edge">
<title>usage_service&#45;&gt;openai</title>
<path fill="none" stroke="#64748b" stroke-width="1.1" stroke-dasharray="5,2" d="M1154.57,-366.04C1296.45,-362.45 1588.32,-348.15 1670,-291.25 1739.16,-243.07 1756.91,-134.38 1761.45,-84.95"/>
<polygon fill="#64748b" stroke="#64748b" stroke-width="1.1" points="1763.91,-85.01 1762.05,-77.83 1759.02,-84.6 1763.91,-85.01"/>
</g>
<!-- postgres -->
<g id="node14" class="node">
<title>postgres</title>
<path fill="#f8fafc" stroke="#cbd5e1" stroke-width="1.2" d="M246.5,-86.65C246.5,-90.08 194.73,-92.88 131,-92.88 67.27,-92.88 15.5,-90.08 15.5,-86.65 15.5,-86.65 15.5,-30.6 15.5,-30.6 15.5,-27.17 67.27,-24.37 131,-24.37 194.73,-24.37 246.5,-27.17 246.5,-30.6 246.5,-30.6 246.5,-86.65 246.5,-86.65"/>
<path fill="none" stroke="#cbd5e1" stroke-width="1.2" d="M246.5,-86.65C246.5,-83.21 194.73,-80.42 131,-80.42 67.27,-80.42 15.5,-83.21 15.5,-86.65"/>
<text text-anchor="middle" x="131" y="-67.83" font-family="Helvetica,sans-Serif" font-size="11.00" fill="#14213d">PostgreSQL 16</text>
<text text-anchor="middle" x="131" y="-55.83" font-family="Helvetica,sans-Serif" font-size="11.00" fill="#14213d">Async driver, row locks, partial unique index</text>
<text text-anchor="middle" x="131" y="-43.83" font-family="Helvetica,sans-Serif" font-size="11.00" fill="#14213d">Users, documents, jobs, chats, usage</text>
</g>
<!-- repositories&#45;&gt;postgres -->
<g id="edge16" class="edge">
<title>repositories&#45;&gt;postgres</title>
<path fill="none" stroke="#64748b" stroke-width="1.1" d="M653.67,-204.23C553.02,-188.13 396.4,-159.15 265,-117.62 245.73,-111.54 225.47,-103.62 206.71,-95.6"/>
<polygon fill="#64748b" stroke="#64748b" stroke-width="1.1" points="207.26,-93.17 199.86,-92.64 205.32,-97.66 207.26,-93.17"/>
<text text-anchor="middle" x="434" y="-143.05" font-family="Helvetica,sans-Serif" font-size="9.00" fill="#475569">await transactions</text>
</g>
<!-- qdrant -->
<g id="node16" class="node">
<title>qdrant</title>
<path fill="#f8fafc" stroke="#cbd5e1" stroke-width="1.2" d="M502,-93.6C502,-97.89 452.7,-101.38 392,-101.38 331.3,-101.38 282,-97.89 282,-93.6 282,-93.6 282,-23.65 282,-23.65 282,-19.36 331.3,-15.87 392,-15.87 452.7,-15.87 502,-19.36 502,-23.65 502,-23.65 502,-93.6 502,-93.6"/>
<path fill="none" stroke="#cbd5e1" stroke-width="1.2" d="M502,-93.6C502,-89.31 452.7,-85.83 392,-85.83 331.3,-85.83 282,-89.31 282,-93.6"/>
<text text-anchor="middle" x="392" y="-73.83" font-family="Helvetica,sans-Serif" font-size="11.00" fill="#14213d">External Qdrant</text>
<text text-anchor="middle" x="392" y="-61.83" font-family="Helvetica,sans-Serif" font-size="11.00" fill="#14213d">AsyncQdrantClient</text>
<text text-anchor="middle" x="392" y="-49.83" font-family="Helvetica,sans-Serif" font-size="11.00" fill="#14213d">5 parallel owner&#45;scoped searches</text>
<text text-anchor="middle" x="392" y="-37.83" font-family="Helvetica,sans-Serif" font-size="11.00" fill="#14213d">semantic_chunks + docling_fixed_chunks</text>
</g>
<!-- ingestion_pipeline&#45;&gt;qdrant -->
<g id="edge18" class="edge">
<title>ingestion_pipeline&#45;&gt;qdrant</title>
<path fill="none" stroke="#64748b" stroke-width="1.1" d="M1178.84,-190.93C1176.2,-190.35 1173.59,-189.79 1171,-189.25 937.88,-140.31 662.37,-98.09 509.39,-76.02"/>
<polygon fill="#64748b" stroke="#64748b" stroke-width="1.1" points="509.48,-73.55 502.2,-74.98 508.78,-78.4 509.48,-73.55"/>
<text text-anchor="middle" x="1054.5" y="-143.05" font-family="Helvetica,sans-Serif" font-size="9.00" fill="#475569">await batched owner&#45;scoped upserts</text>
</g>
<!-- ingestion_pipeline&#45;&gt;openai -->
<g id="edge19" class="edge">
<title>ingestion_pipeline&#45;&gt;openai</title>
<path fill="none" stroke="#64748b" stroke-width="1.1" d="M1399.1,-189.99C1511.05,-160.21 1668.38,-118.33 1670,-117.62 1691.92,-108.12 1714.72,-93.98 1732.25,-82.05"/>
<polygon fill="#64748b" stroke="#64748b" stroke-width="1.1" points="1734.09,-83.75 1738.46,-77.76 1731.31,-79.72 1734.09,-83.75"/>
<text text-anchor="middle" x="1662" y="-143.05" font-family="Helvetica,sans-Serif" font-size="9.00" fill="#475569">await Responses + embeddings</text>
</g>
<!-- fallback -->
<g id="node13" class="node">
<title>fallback</title>
<path fill="#ffffff" stroke="#cbd5e1" stroke-width="1.2" d="M1497.5,-77.62C1497.5,-77.62 1372.5,-77.62 1372.5,-77.62 1366.5,-77.62 1360.5,-71.62 1360.5,-65.62 1360.5,-65.62 1360.5,-51.62 1360.5,-51.62 1360.5,-45.62 1366.5,-39.62 1372.5,-39.62 1372.5,-39.62 1497.5,-39.62 1497.5,-39.62 1503.5,-39.62 1509.5,-45.62 1509.5,-51.62 1509.5,-51.62 1509.5,-65.62 1509.5,-65.62 1509.5,-71.62 1503.5,-77.62 1497.5,-77.62"/>
<text text-anchor="middle" x="1435" y="-61.83" font-family="Helvetica,sans-Serif" font-size="11.00" fill="#14213d">Conversational fallback</text>
<text text-anchor="middle" x="1435" y="-49.83" font-family="Helvetica,sans-Serif" font-size="11.00" fill="#14213d">Active&#45;session history only</text>
</g>
<!-- rag_graph&#45;&gt;fallback -->
<g id="edge9" class="edge">
<title>rag_graph&#45;&gt;fallback</title>
<path fill="none" stroke="#64748b" stroke-width="1.1" stroke-dasharray="5,2" d="M1523.5,-189.23C1502.74,-158.83 1471.04,-112.4 1451.74,-84.14"/>
<polygon fill="#64748b" stroke="#64748b" stroke-width="1.1" points="1453.56,-82.46 1447.59,-78.06 1449.51,-85.22 1453.56,-82.46"/>
</g>
<!-- rag_graph&#45;&gt;qdrant -->
<g id="edge20" class="edge">
<title>rag_graph&#45;&gt;qdrant</title>
<path fill="none" stroke="#64748b" stroke-width="1.1" d="M1434.29,-192.92C1428.45,-191.65 1422.66,-190.41 1417,-189.25 1281.31,-161.31 1247.19,-154.52 1110,-135.25 898.98,-105.61 651.59,-81.99 509.19,-69.46"/>
<polygon fill="#64748b" stroke="#64748b" stroke-width="1.1" points="509.26,-67.01 502.07,-68.84 508.83,-71.89 509.26,-67.01"/>
<text text-anchor="middle" x="1283.5" y="-148.05" font-family="Helvetica,sans-Serif" font-size="9.00" fill="#475569">5 parallel searches</text>
<text text-anchor="middle" x="1283.5" y="-138.05" font-family="Helvetica,sans-Serif" font-size="9.00" fill="#475569">mandatory owner filter</text>
</g>
<!-- rag_graph&#45;&gt;openai -->
<g id="edge21" class="edge">
<title>rag_graph&#45;&gt;openai</title>
<path fill="none" stroke="#64748b" stroke-width="1.1" d="M1585.19,-189.23C1627.89,-158.11 1693.65,-110.18 1732.09,-82.16"/>
<polygon fill="#64748b" stroke="#64748b" stroke-width="1.1" points="1733.8,-83.94 1738.02,-77.84 1730.92,-79.98 1733.8,-83.94"/>
<text text-anchor="middle" x="1699" y="-143.05" font-family="Helvetica,sans-Serif" font-size="9.00" fill="#475569">await rewrite + answer</text>
</g>
</g>
</svg>
